<svg width="7" height="7" viewBox="0 0 7 7" fill="none" xmlns="http://www.w3.org/2000/svg">
<path d="M0.635884 5.6723C0.45593 5.85225 0.452257 6.17176 0.639556 6.35906C0.830528 6.54636 1.15004 6.54269 1.32632 6.36641L3.50046 4.19227L5.67093 6.36274C5.85455 6.54636 6.17039 6.54636 6.35769 6.35906C6.54499 6.16809 6.54499 5.85593 6.36136 5.6723L4.19089 3.50184L6.36136 1.3277C6.54499 1.14407 6.54866 0.828236 6.35769 0.640937C6.17039 0.453638 5.85455 0.453638 5.67093 0.637264L3.50046 2.80773L1.32632 0.637264C1.15004 0.45731 0.826855 0.449965 0.639556 0.640937C0.452257 0.828236 0.45593 1.15142 0.635884 1.3277L2.80635 3.50184L0.635884 5.6723Z" fill="#7F7E84"/>
</svg>
