<svg width="22" height="11" viewBox="0 0 22 11" fill="none" xmlns="http://www.w3.org/2000/svg">
<g clip-path="url(#clip0_1113_5351)">
<path d="M9.52843 10.9999C8.40399 10.9999 7.32843 10.4576 6.69532 9.51439C6.12088 9.86573 5.66132 10.1676 5.37043 10.3727C3.86221 11.4338 1.75021 11.1155 0.65021 9.66059C-0.44979 8.20571 -0.11979 6.16841 1.38843 5.10732C1.59377 4.96348 6.46554 1.55855 11.5231 0.129611C12.936 -0.268888 14.454 0.2593 15.2753 1.43829L15.2875 1.45716C15.2875 1.45716 15.2998 1.47366 15.3047 1.48309C15.8791 1.13175 16.3362 0.829933 16.6295 0.624788C18.1378 -0.436305 20.2498 -0.117977 21.3498 1.3369C22.4498 2.79178 22.1198 4.82907 20.6115 5.89017C20.4062 6.034 15.5344 9.43894 10.4769 10.8679C10.1615 10.9575 9.84376 10.9999 9.52599 10.9999H9.52843Z" fill="currentColor"/>
</g>
<path d="M9.52632 11C8.40206 11 7.32669 10.4578 6.69369 9.51472C6.11934 9.866 5.65987 10.1678 5.36903 10.3729C3.86106 11.4338 1.74942 11.1155 0.649611 9.66089C-0.450202 8.20626 -0.120258 6.16931 1.38771 5.1084C1.59301 4.96459 6.46395 1.56024 11.5206 0.131542C12.9333 -0.26689 14.451 0.261209 15.2722 1.44L15.2844 1.45886C15.2844 1.45886 15.2967 1.47536 15.3016 1.48479C15.8759 1.13351 16.3329 0.831744 16.6262 0.626634C18.1342 -0.434278 20.2458 -0.116004 21.3456 1.33862C22.4454 2.79325 22.1155 4.8302 20.6075 5.89112C20.4022 6.03493 15.5313 9.43928 10.4746 10.868C10.1593 10.9576 9.8416 11 9.52387 11H9.52632Z" fill="url(#paint0_linear_1113_5351)"/>
<defs>
<linearGradient id="paint0_linear_1113_5351" x1="10.9976" y1="-0.27632" x2="10.9976" y2="11.5705" gradientUnits="userSpaceOnUse">
<stop stop-color="white" stop-opacity="0.5"/>
<stop offset="0.5" stop-color="white" stop-opacity="0.05"/>
<stop offset="1" stop-opacity="0.05"/>
</linearGradient>
<clipPath id="clip0_1113_5351">
<rect width="22" height="11" fill="white"/>
</clipPath>
</defs>
</svg>
