<svg width="55" height="55" viewBox="0 0 55 55" fill="none" xmlns="http://www.w3.org/2000/svg">
<g clip-path="url(#clip0_978_11524)">
<rect width="55" height="55" rx="27.5" fill="#C3333C"/>
<path d="M33.388 26.4301C30.1452 29.6826 30.1452 34.956 33.388 38.2085C36.6309 41.461 41.8886 41.461 45.1315 38.2085L56.6382 26.6676C59.8811 23.4151 59.8811 18.1417 56.6382 14.8892C53.3954 11.6367 48.1376 11.6367 44.8948 14.8892L33.388 26.4301Z" fill="#0FC45E"/>
<path d="M33.6152 14.8896C30.3723 11.6371 25.1146 11.6371 21.8717 14.8896C18.6289 18.1421 18.6289 23.4155 21.8717 26.668L33.3785 38.2089C36.6213 41.4614 41.8791 41.4614 45.1219 38.2089C48.3648 34.9564 48.3648 29.6831 45.1219 26.4306L33.6152 14.8896Z" fill="#0FC45E"/>
<path d="M33.388 45.3173C30.1452 48.5698 30.1452 53.8432 33.388 57.0957C36.6309 60.3482 41.8886 60.3482 45.1315 57.0957L56.6382 45.5548C59.8811 42.3023 59.8811 37.0289 56.6382 33.7764C53.3954 30.5239 48.1376 30.5239 44.8948 33.7764L33.388 45.3173Z" fill="#0FC45E"/>
<path d="M33.6152 33.7773C30.3723 30.5248 25.1146 30.5248 21.8717 33.7773C18.6289 37.0298 18.6289 42.3032 21.8717 45.5557L33.3785 57.0966C36.6213 60.3491 41.8791 60.3491 45.1219 57.0966C48.3648 53.8441 48.3648 48.5707 45.1219 45.3182L33.6152 33.7773Z" fill="#0FC45E"/>
<circle opacity="0.75" cx="27.5" cy="27.5" r="20.5" fill="white"/>
</g>
<defs>
<clipPath id="clip0_978_11524">
<rect width="55" height="55" rx="27.5" fill="white"/>
</clipPath>
</defs>
</svg>
