<svg width="29" height="15" viewBox="0 0 29 15" fill="none" xmlns="http://www.w3.org/2000/svg">
<g clip-path="url(#clip0_256_5798)">
<path d="M12.5337 15.0001C11.0546 15.0001 9.63982 14.2606 8.80703 12.9744C8.0514 13.4535 7.4469 13.8651 7.06426 14.1448C5.08034 15.5918 2.3022 15.1577 0.855257 13.1737C-0.591688 11.1898 -0.157605 8.41169 1.82632 6.96475C2.09641 6.7686 8.50478 2.12552 15.1575 0.176964C17.016 -0.366444 19.0128 0.353813 20.0932 1.96153L20.1093 1.98725C20.1093 1.98725 20.1254 2.00976 20.1318 2.02262C20.8874 1.54352 21.4887 1.13195 21.8746 0.852205C23.8585 -0.59474 26.6366 -0.160656 28.0836 1.82327C29.5305 3.80719 29.0964 6.58532 27.1125 8.03227C26.8424 8.22841 20.434 12.8715 13.7813 14.8201C13.3665 14.9422 12.9485 15.0001 12.5305 15.0001H12.5337Z" fill="#0075FF"/>
<path d="M12.5337 15.0001C11.0546 15.0001 9.63982 14.2606 8.80703 12.9744C8.0514 13.4535 7.4469 13.8651 7.06426 14.1448C5.08034 15.5918 2.3022 15.1577 0.855257 13.1737C-0.591688 11.1898 -0.157605 8.41169 1.82632 6.96475C2.09641 6.7686 8.50477 2.12552 15.1575 0.176964C17.016 -0.366444 19.0128 0.353813 20.0932 1.96153L20.1093 1.98725C20.1093 1.98725 20.1254 2.00976 20.1318 2.02262C20.8874 1.54352 21.4887 1.13195 21.8746 0.852205C23.8585 -0.59474 26.6366 -0.160656 28.0836 1.82327C29.5305 3.80719 29.0964 6.58532 27.1125 8.03227C26.8424 8.22841 20.434 12.8715 13.7813 14.8201C13.3665 14.9422 12.9485 15.0001 12.5305 15.0001H12.5337Z" fill="url(#paint0_linear_256_5798)"/>
</g>
<defs>
<linearGradient id="paint0_linear_256_5798" x1="14.4694" y1="-0.379306" x2="14.4694" y2="15.7783" gradientUnits="userSpaceOnUse">
<stop stop-color="white" stop-opacity="0.5"/>
<stop offset="0.5" stop-color="white" stop-opacity="0.05"/>
<stop offset="1" stop-opacity="0.05"/>
</linearGradient>
<clipPath id="clip0_256_5798">
<rect width="28.9389" height="15" fill="white"/>
</clipPath>
</defs>
</svg>
