<svg width="55" height="55" viewBox="0 0 55 55" fill="none" xmlns="http://www.w3.org/2000/svg">
<g clip-path="url(#clip0_978_11511)">
<rect width="55" height="55" rx="27.5" fill="#7DBCD7"/>
<path d="M2.66116 56.3594C6.89229 57.4932 12.9799 48.4938 16.2583 36.2589C19.5366 24.024 18.7642 13.1865 14.5331 12.0528C10.302 10.9191 4.21433 19.9184 0.935985 32.1533C-2.34236 44.3883 -1.56997 55.2257 2.66116 56.3594Z" fill="#D1C5AE"/>
<path d="M17.0452 60.2134C21.2763 61.3472 27.364 52.3478 30.6423 40.1129C33.9206 27.878 33.1483 17.0405 28.9171 15.9068C24.686 14.7731 18.5984 23.7724 15.32 36.0073C12.0417 48.2423 12.8141 59.0797 17.0452 60.2134Z" fill="#D1C5AE"/>
<circle opacity="0.75" cx="27.5" cy="27.5" r="20.5" fill="white"/>
</g>
<defs>
<clipPath id="clip0_978_11511">
<rect width="55" height="55" rx="27.5" fill="white"/>
</clipPath>
</defs>
</svg>
