<svg width="66" height="122" viewBox="0 0 66 122" fill="none" xmlns="http://www.w3.org/2000/svg">
<path fill-rule="evenodd" clip-rule="evenodd" d="M74.4935 6.1907C70.8419 2.71919 65.9051 0.587205 60.4723 0.584016L20.5943 0.560593C9.35567 0.553993 0.250371 9.65976 0.256963 20.8989C0.26357 32.138 9.37957 41.2545 20.6182 41.2611L40.1647 41.2725L40.1762 60.8191C40.1795 66.4214 42.4461 71.4963 46.1108 75.1783C49.8058 78.9443 54.9511 81.2822 60.6404 81.2856L80.1896 81.2971L80.201 100.841C80.2076 112.08 89.3237 121.197 100.562 121.203C111.801 121.21 120.906 112.104 120.899 100.865L120.876 60.9848C120.872 54.0469 117.397 47.9179 112.094 44.2413C108.802 41.9533 104.804 40.6111 100.495 40.6085L80.8628 40.597L80.8512 20.963C80.8478 15.1482 78.406 9.90151 74.4935 6.1907Z" fill="#9BEA77"/>
</svg>
