<svg width="30" height="15" viewBox="0 0 30 15" fill="none" xmlns="http://www.w3.org/2000/svg">
<g clip-path="url(#clip0_256_5909)">
<path d="M12.9934 15.0001C11.46 15.0001 9.99338 14.2606 9.13005 12.9744C8.34671 13.4535 7.72005 13.8651 7.32338 14.1448C5.26672 15.5918 2.38672 15.1577 0.886716 13.1737C-0.613283 11.1898 -0.163284 8.41169 1.89338 6.96475C2.17338 6.7686 8.81671 2.12552 15.7134 0.176964C17.64 -0.366444 19.71 0.353813 20.83 1.96153L20.8467 1.98725C20.8467 1.98725 20.8634 2.00976 20.87 2.02262C21.6534 1.54352 22.2767 1.13195 22.6767 0.852205C24.7334 -0.59474 27.6134 -0.160656 29.1134 1.82327C30.6134 3.80719 30.1634 6.58532 28.1067 8.03227C27.8267 8.22841 21.1834 12.8715 14.2867 14.8201C13.8567 14.9422 13.4234 15.0001 12.99 15.0001H12.9934Z" fill="#FFD62B"/>
<path d="M12.9934 15.0001C11.46 15.0001 9.99338 14.2606 9.13005 12.9744C8.34671 13.4535 7.72005 13.8651 7.32338 14.1448C5.26672 15.5918 2.38672 15.1577 0.886716 13.1737C-0.613283 11.1898 -0.163284 8.41169 1.89338 6.96475C2.17338 6.7686 8.81671 2.12552 15.7134 0.176964C17.64 -0.366444 19.71 0.353813 20.83 1.96153L20.8467 1.98725C20.8467 1.98725 20.8634 2.00976 20.87 2.02262C21.6534 1.54352 22.2767 1.13195 22.6767 0.852205C24.7334 -0.59474 27.6134 -0.160656 29.1134 1.82327C30.6134 3.80719 30.1634 6.58532 28.1067 8.03227C27.8267 8.22841 21.1834 12.8715 14.2867 14.8201C13.8567 14.9422 13.4234 15.0001 12.99 15.0001H12.9934Z" fill="url(#paint0_linear_256_5909)"/>
</g>
<defs>
<linearGradient id="paint0_linear_256_5909" x1="15" y1="-0.379306" x2="15" y2="15.7783" gradientUnits="userSpaceOnUse">
<stop stop-color="white" stop-opacity="0.5"/>
<stop offset="0.5" stop-color="white" stop-opacity="0.05"/>
<stop offset="1" stop-opacity="0.05"/>
</linearGradient>
<clipPath id="clip0_256_5909">
<rect width="30" height="15" fill="white"/>
</clipPath>
</defs>
</svg>
