<svg width="40" height="20" viewBox="0 0 40 20" fill="none" xmlns="http://www.w3.org/2000/svg">
<g clip-path="url(#clip0_1356_4801)">
<path d="M17.3245 20.0001C15.2801 20.0001 13.3245 19.014 12.1734 17.2991C11.129 17.9379 10.2934 18.4867 9.76451 18.8597C7.02229 20.789 3.18229 20.2102 1.18229 17.565C-0.817711 14.9197 -0.217712 11.2155 2.52451 9.28629C2.89784 9.02476 11.7556 2.83398 20.9512 0.235912C23.5201 -0.488633 26.2801 0.47171 27.7734 2.61533L27.7956 2.64963C27.7956 2.64963 27.8178 2.67964 27.8267 2.69679C28.8712 2.05799 29.7023 1.50922 30.2356 1.13623C32.9778 -0.793027 36.8178 -0.214249 38.8178 2.43098C40.8178 5.07621 40.2178 8.78039 37.4756 10.7097C37.1023 10.9712 28.2445 17.162 19.049 19.76C18.4756 19.9229 17.8978 20.0001 17.3201 20.0001H17.3245Z" fill="#E2E2E8"/>
</g>
<path d="M17.3206 20C15.2765 20 13.3213 19.0141 12.1703 17.2995C11.1261 17.9382 10.2907 18.4869 9.76187 18.8598C7.02011 20.7887 3.18077 20.21 1.18111 17.5653C-0.818548 14.9205 -0.218651 11.2169 2.5231 9.288C2.89637 9.02652 11.7526 2.83679 20.9466 0.239167C23.5151 -0.485254 26.2746 0.474925 27.7677 2.61818L27.7899 2.65247C27.7899 2.65247 27.8121 2.68248 27.821 2.69963C28.8653 2.06094 29.6962 1.51226 30.2295 1.13933C32.9712 -0.789597 36.8106 -0.210917 38.8102 2.43386C40.8099 5.07864 40.21 8.78219 37.4682 10.7111C37.095 10.9726 28.2387 17.1623 19.0447 19.76C18.4715 19.9228 17.8938 20 17.3161 20H17.3206Z" fill="url(#paint0_linear_1356_4801)"/>
<defs>
<linearGradient id="paint0_linear_1356_4801" x1="19.9957" y1="-0.5024" x2="19.9957" y2="21.0373" gradientUnits="userSpaceOnUse">
<stop stop-color="white" stop-opacity="0.5"/>
<stop offset="0.5" stop-color="white" stop-opacity="0.05"/>
<stop offset="1" stop-opacity="0.05"/>
</linearGradient>
<clipPath id="clip0_1356_4801">
<rect width="40" height="20" fill="white"/>
</clipPath>
</defs>
</svg>
