<svg width="30" height="15" viewBox="0 0 30 15" fill="none" xmlns="http://www.w3.org/2000/svg">
<g clip-path="url(#clip0_1535_5135)">
<path d="M12.9933 15.0001C11.46 15.0001 9.99332 14.2606 9.12999 12.9744C8.34665 13.4535 7.71999 13.8651 7.32332 14.1448C5.26665 15.5918 2.38666 15.1577 0.886655 13.1737C-0.613344 11.1898 -0.163345 8.41169 1.89332 6.96475C2.17332 6.7686 8.81665 2.12552 15.7133 0.176964C17.64 -0.366444 19.71 0.353813 20.83 1.96153L20.8467 1.98725C20.8467 1.98725 20.8633 2.00976 20.87 2.02262C21.6533 1.54352 22.2767 1.13195 22.6767 0.852205C24.7333 -0.59474 27.6133 -0.160656 29.1133 1.82327C30.6133 3.80719 30.1633 6.58532 28.1067 8.03227C27.8267 8.22841 21.1833 12.8715 14.2867 14.8201C13.8567 14.9422 13.4233 15.0001 12.99 15.0001H12.9933Z" fill="#FF9900"/>
<path d="M12.9933 15.0001C11.46 15.0001 9.99332 14.2606 9.12999 12.9744C8.34665 13.4535 7.71999 13.8651 7.32332 14.1448C5.26665 15.5918 2.38666 15.1577 0.886655 13.1737C-0.613344 11.1898 -0.163345 8.41169 1.89332 6.96475C2.17332 6.7686 8.81665 2.12552 15.7133 0.176964C17.64 -0.366444 19.71 0.353813 20.83 1.96153L20.8467 1.98725C20.8467 1.98725 20.8633 2.00976 20.87 2.02262C21.6533 1.54352 22.2767 1.13195 22.6767 0.852205C24.7333 -0.59474 27.6133 -0.160656 29.1133 1.82327C30.6133 3.80719 30.1633 6.58532 28.1067 8.03227C27.8267 8.22841 21.1833 12.8715 14.2867 14.8201C13.8567 14.9422 13.4233 15.0001 12.99 15.0001H12.9933Z" fill="url(#paint0_linear_1535_5135)"/>
</g>
<defs>
<linearGradient id="paint0_linear_1535_5135" x1="15" y1="-0.379306" x2="15" y2="15.7783" gradientUnits="userSpaceOnUse">
<stop stop-color="white" stop-opacity="0.5"/>
<stop offset="0.5" stop-color="white" stop-opacity="0.05"/>
<stop offset="1" stop-opacity="0.05"/>
</linearGradient>
<clipPath id="clip0_1535_5135">
<rect width="30" height="15" fill="white"/>
</clipPath>
</defs>
</svg>
