<svg width="55" height="55" viewBox="0 0 55 55" fill="none" xmlns="http://www.w3.org/2000/svg">
<g clip-path="url(#clip0_978_11500)">
<rect width="55" height="55" rx="27.5" fill="#88D3EB"/>
<g clip-path="url(#clip1_978_11500)">
<path d="M47.9331 48.9651C47.9331 44.8414 44.5905 41.4985 40.4673 41.4985C36.3441 41.4985 33.0016 44.8414 33.0016 48.9651L33.0016 63.5945C33.0016 67.7182 36.3441 71.0611 40.4673 71.0611C44.5905 71.0611 47.9331 67.7182 47.9331 63.5945L47.9331 48.9651Z" fill="#0075FF"/>
<path d="M47.9315 19.4646C47.9315 15.3409 44.589 11.998 40.4657 11.998C36.3425 11.998 33 15.3409 33 19.4646L33 34.094C33 38.2177 36.3425 41.5606 40.4657 41.5606C44.589 41.5606 47.9315 38.2177 47.9315 34.094L47.9315 19.4646Z" fill="#0075FF"/>
<path d="M54.8802 41.5382L54.8802 49.8726L47.6614 45.7046L40.4426 41.5382L47.6614 37.3703L54.8802 33.2023L54.8802 41.5382Z" fill="#0075FF"/>
</g>
<circle opacity="0.75" cx="27.5" cy="27.5" r="20.5" fill="white"/>
</g>
<defs>
<clipPath id="clip0_978_11500">
<rect width="55" height="55" rx="27.5" fill="white"/>
</clipPath>
<clipPath id="clip1_978_11500">
<rect width="59.0627" height="21.8802" fill="white" transform="translate(33 71.0625) rotate(-90)"/>
</clipPath>
</defs>
</svg>
