<svg width="89" height="125" viewBox="0 0 89 125" fill="none" xmlns="http://www.w3.org/2000/svg">
<path fill-rule="evenodd" clip-rule="evenodd" d="M79.2886 25.9979C79.2886 12.1812 68.034 0.980469 54.1507 0.980469C40.2675 0.980469 29.0128 12.1812 29.0128 25.9979V46.063C28.0257 45.9452 27.0209 45.8846 26.0019 45.8846C12.1852 45.8846 0.984619 57.0315 0.984619 70.782C0.984619 84.5324 12.1852 95.6793 26.0019 95.6793C27.0209 95.6793 28.0257 95.6187 29.0129 95.5009V115.166C29.0129 128.983 40.2675 140.184 54.1507 140.184C68.034 140.184 79.2886 128.983 79.2886 115.166V89.0866L110.882 107.238L110.882 70.5814V33.9245L79.2886 52.0806V25.9979Z" fill="#FE8709"/>
</svg>
