<svg width="55" height="55" viewBox="0 0 55 55" fill="none" xmlns="http://www.w3.org/2000/svg">
<g clip-path="url(#clip0_978_11494)">
<rect width="55" height="55" rx="27.5" fill="#FB4738"/>
<path d="M26.2029 36.2756C26.2003 40.8037 29.8689 44.4723 34.397 44.4697C38.9251 44.467 42.598 40.7941 42.6006 36.266L42.6101 20.1988C42.6127 15.6707 38.9441 12.0021 34.416 12.0048C29.8879 12.0074 26.215 15.6803 26.2124 20.2084L26.2029 36.2756Z" fill="#9BEA77"/>
<path d="M18.3329 28.0887C13.8048 28.0913 10.1319 31.7642 10.1292 36.2924C10.1265 40.8205 13.7951 44.4891 18.3232 44.4864L34.3904 44.477C38.9185 44.4743 42.5914 40.8014 42.5941 36.2733C42.5968 31.7452 38.9282 28.0766 34.4001 28.0792L18.3329 28.0887Z" fill="#9BEA77"/>
<path d="M10.0778 52.4011C10.0751 56.9292 13.7437 60.5978 18.2718 60.5951C22.7999 60.5925 26.4729 56.9196 26.4755 52.3915L26.485 36.3243C26.4876 31.7962 22.819 28.1276 18.2909 28.1303C13.7628 28.1329 10.0899 31.8058 10.0872 36.3339L10.0778 52.4011Z" fill="#9BEA77"/>
<path d="M2.20849 44.2147C-2.31962 44.2173 -5.99253 47.8902 -5.99519 52.4183C-5.99784 56.9464 -2.32925 60.615 2.19886 60.6124L18.266 60.6029C22.7941 60.6003 26.467 56.9274 26.4697 52.3993C26.4724 47.8712 22.8038 44.2026 18.2757 44.2052L2.20849 44.2147Z" fill="#9BEA77"/>
<circle opacity="0.75" cx="27.5" cy="27.5" r="20.5" fill="white"/>
</g>
<defs>
<clipPath id="clip0_978_11494">
<rect width="55" height="55" rx="27.5" fill="white"/>
</clipPath>
</defs>
</svg>
