<svg width="77" height="125" viewBox="0 0 77 125" fill="none" xmlns="http://www.w3.org/2000/svg">
<g clip-path="url(#clip0_2474_6561)">
<path d="M57.437 90.3511C48.5437 86.2041 37.9724 90.0518 33.8254 98.9451C29.6784 107.838 33.526 118.41 42.4193 122.557L73.9753 137.271C82.8686 141.419 93.4399 137.571 97.5869 128.678C101.734 119.784 97.8863 109.213 88.993 105.066L57.437 90.3511Z" fill="#FF7569"/>
<path d="M30.4012 16.0738C21.5079 11.9268 10.9366 15.7744 6.78955 24.6677C2.64253 33.561 6.49016 44.1323 15.3835 48.2794L46.9394 62.9941C55.8327 67.1412 66.404 63.2935 70.5511 54.4002C74.6981 45.5069 70.8504 34.9356 61.9571 30.7886L30.4012 16.0738Z" fill="#FF7569"/>
<path d="M43.9191 53.2125C35.0257 49.0654 24.4545 52.9131 20.3074 61.8064C16.1604 70.6997 20.008 81.271 28.9014 85.418L60.4573 100.133C69.3506 104.28 79.9219 100.432 84.0689 91.5389C88.216 82.6456 84.3683 72.0743 75.475 67.9273L43.9191 53.2125Z" fill="#FF7569"/>
</g>
<defs>
<clipPath id="clip0_2474_6561">
<rect width="139.203" height="60.1574" fill="white" transform="translate(47.731 152.364) rotate(-110)"/>
</clipPath>
</defs>
</svg>
