<svg width="55" height="55" viewBox="0 0 55 55" fill="none" xmlns="http://www.w3.org/2000/svg">
<g clip-path="url(#clip0_978_11477)">
<rect width="55" height="55" rx="27.5" fill="#FFBCCE"/>
<path d="M5.44558 50.2852L-6.45506 41.9522L6.71393 35.8078L19.8854 29.663L18.6146 44.1408L17.3462 58.6181L5.44558 50.2852Z" fill="#FE8709"/>
<path d="M27.0703 50.2077C31.5559 53.3485 37.7395 52.2567 40.8817 47.7691C44.024 43.2815 42.935 37.0974 38.4494 33.9566L9.50106 13.6867C5.01547 10.5459 -1.16813 11.6376 -4.31039 16.1252C-7.45266 20.6129 -6.36367 26.797 -1.87808 29.9378L27.0703 50.2077Z" fill="#FE8709"/>
<path d="M18.9296 30.8895C23.3937 34.0152 29.5476 32.9287 32.6748 28.4626C35.802 23.9965 34.7182 17.8421 30.2542 14.7164C25.7901 11.5906 19.6362 12.6771 16.509 17.1432C13.3818 21.6093 14.4656 27.7637 18.9296 30.8895Z" fill="#FE8709"/>
<circle opacity="0.75" cx="27.5" cy="27.5" r="20.5" fill="white"/>
</g>
<defs>
<clipPath id="clip0_978_11477">
<rect width="55" height="55" rx="27.5" fill="white"/>
</clipPath>
</defs>
</svg>
