<svg width="70" height="125" viewBox="0 0 70 125" fill="none" xmlns="http://www.w3.org/2000/svg">
<path fill-rule="evenodd" clip-rule="evenodd" d="M58.5444 24.7566L42.037 8.14516C32.5451 -1.40648 17.1558 -1.40648 7.66401 8.14516C-1.82781 17.6968 -1.82781 33.1831 7.66401 42.7347L21.5214 56.6794C16.4523 57.3808 11.561 59.6923 7.6638 63.6141C-1.82804 73.1657 -1.82804 88.652 7.6638 98.2036L41.3439 132.096C46.9879 137.775 54.717 140.078 62.0516 139.003C67.0621 138.275 71.8898 135.971 75.7449 132.092L109.425 98.1995C118.917 88.6479 118.917 73.1616 109.425 63.61C105.529 59.6892 100.639 57.3778 95.5709 56.6758L109.425 42.7343C118.917 33.1826 118.917 17.6963 109.425 8.14469C99.9333 -1.40695 84.544 -1.40695 75.0522 8.14469L58.5444 24.7566Z" fill="#0FC45E"/>
</svg>
