<svg width="63" height="131" viewBox="0 0 63 131" fill="none" xmlns="http://www.w3.org/2000/svg">
<path fill-rule="evenodd" clip-rule="evenodd" d="M47.4364 23.721C47.4364 10.6204 36.8174 0.000227272 23.7182 0.000227845C10.619 0.000228418 -7.73774e-06 10.6204 -7.16509e-06 23.721L-5.13352e-06 70.1978C-4.59297e-06 82.5643 9.46227 92.7205 21.541 93.8199C9.4647 94.9217 0.00508352 105.077 0.00508406 117.442L0.00508609 163.918C0.00508666 177.019 10.6241 187.639 23.7233 187.639C36.8225 187.639 47.4415 177.019 47.4415 163.918L47.4415 117.442C47.4415 113.225 46.3413 109.265 44.4124 105.834L46.5783 107.084L69.5121 120.325L69.5121 93.8474L69.5121 67.3647L46.5783 80.6061L44.3622 81.8855C46.3191 78.4358 47.4364 74.4473 47.4364 70.1978L47.4364 23.721Z" fill="#0075FF"/>
</svg>
