<svg width="55" height="55" viewBox="0 0 55 55" fill="none" xmlns="http://www.w3.org/2000/svg">
<g clip-path="url(#clip0_978_11487)">
<rect width="55" height="55" rx="27.5" fill="#C5EF68"/>
<g clip-path="url(#clip1_978_11487)">
<path d="M18.2554 42.2609C14.647 40.5782 10.3578 42.1394 8.67523 45.7477C6.99262 49.3561 8.55375 53.6453 12.1621 55.3279L24.9656 61.2982C28.5739 62.9808 32.8631 61.4197 34.5457 57.8113C36.2283 54.203 34.6672 49.9138 31.0588 48.2312L18.2554 42.2609Z" fill="#FF7569"/>
<path d="M7.28592 12.1236C3.67756 10.441 -0.611617 12.0022 -2.29422 15.6105C-3.97683 19.2189 -2.4157 23.5081 1.19266 25.1907L13.9961 31.161C17.6045 32.8436 21.8937 31.2825 23.5763 27.6741C25.2589 24.0658 23.6977 19.7766 20.0894 18.094L7.28592 12.1236Z" fill="#FF7569"/>
<path d="M12.7706 27.1925C9.16227 25.5099 4.87309 27.071 3.19049 30.6794C1.50788 34.2877 3.06901 38.5769 6.67737 40.2595L19.4808 46.2299C23.0892 47.9125 27.3784 46.3513 29.061 42.743C30.7436 39.1346 29.1824 34.8454 25.5741 33.1628L12.7706 27.1925Z" fill="#FF7569"/>
</g>
<circle opacity="0.75" cx="27.5" cy="27.5" r="20.5" fill="white"/>
</g>
<defs>
<clipPath id="clip0_978_11487">
<rect width="55" height="55" rx="27.5" fill="white"/>
</clipPath>
<clipPath id="clip1_978_11487">
<rect width="56.48" height="24.4081" fill="white" transform="translate(14.3173 67.4219) rotate(-110)"/>
</clipPath>
</defs>
</svg>
