<svg width="213" height="487" viewBox="0 0 213 487" fill="none" xmlns="http://www.w3.org/2000/svg">
<g clip-path="url(#clip0_120_4027)">
<path d="M168.023 415.923C168.023 369.524 130.414 331.911 84.0207 331.911C37.6273 331.911 0.017946 369.524 0.017948 415.923L0.0179552 580.53C0.0179572 626.928 37.6273 664.542 84.0207 664.542C130.414 664.542 168.023 626.928 168.023 580.53L168.023 415.923Z" fill="#0075FF"/>
<path d="M168.006 83.9938C168.006 37.5954 130.396 -0.01795 84.0028 -0.017948C37.6093 -0.017946 1.64413e-06 37.5954 3.67227e-06 83.9938L1.08675e-05 248.601C1.28956e-05 294.999 37.6093 332.612 84.0028 332.612C130.396 332.612 168.006 294.999 168.006 248.601L168.006 83.9938Z" fill="#0075FF"/>
<path d="M246.191 332.361L246.191 426.137L164.967 379.24L83.7421 332.361L164.967 285.464L246.191 238.567L246.191 332.361Z" fill="#0075FF"/>
</g>
<defs>
<clipPath id="clip0_120_4027">
<rect width="664.56" height="246.191" fill="white" transform="translate(0 664.56) rotate(-90)"/>
</clipPath>
</defs>
</svg>
