<svg width="334" height="487" viewBox="0 0 334 487" fill="none" xmlns="http://www.w3.org/2000/svg">
<g clip-path="url(#clip0_120_3971)">
<path d="M159.095 159.434C122.11 196.529 122.11 256.671 159.095 293.765C196.08 330.86 256.043 330.86 293.028 293.765L424.261 162.142C461.246 125.048 461.246 64.9059 424.261 27.8115C387.277 -9.28293 327.313 -9.28295 290.328 27.8115L159.095 159.434Z" fill="#0FC45E"/>
<path d="M161.686 27.812C124.701 -9.28241 64.7372 -9.28241 27.7526 27.812C-9.23198 64.9064 -9.23198 125.048 27.7526 162.143L158.986 293.766C195.97 330.86 255.934 330.86 292.919 293.766C329.903 256.671 329.903 196.529 292.919 159.435L161.686 27.812Z" fill="#0FC45E"/>
<path d="M159.094 374.842C122.109 411.936 122.109 472.078 159.094 509.173C196.079 546.267 256.042 546.267 293.027 509.173L424.26 377.55C461.245 340.455 461.245 280.313 424.26 243.219C387.276 206.124 327.312 206.124 290.327 243.219L159.094 374.842Z" fill="#0FC45E"/>
<path d="M161.685 243.233C124.7 206.139 64.7362 206.139 27.7516 243.233C-9.23292 280.328 -9.23293 340.47 27.7516 377.564L158.985 509.187C195.969 546.282 255.933 546.282 292.918 509.187C329.902 472.093 329.902 411.951 292.918 374.856L161.685 243.233Z" fill="#0FC45E"/>
</g>
<defs>
<clipPath id="clip0_120_3971">
<rect width="452" height="537" fill="white"/>
</clipPath>
</defs>
</svg>
