<svg width="354" height="548" viewBox="0 0 354 548" fill="none" xmlns="http://www.w3.org/2000/svg">
<g clip-path="url(#clip0_120_4187)">
<path d="M150.53 387.56C112.007 369.596 66.216 386.263 48.2524 424.786C30.2889 463.309 46.9556 509.1 85.4785 527.064L222.169 590.803C260.692 608.767 306.483 592.1 324.446 553.577C342.41 515.054 325.743 469.263 287.22 451.299L150.53 387.56Z" fill="#FF7569"/>
<path d="M33.4199 65.8139C-5.10301 47.8503 -50.8944 64.517 -68.8579 103.04C-86.8214 141.563 -70.1548 187.354 -31.6318 205.318L105.058 269.057C143.581 287.021 189.373 270.354 207.336 231.831C225.3 193.308 208.633 147.517 170.11 129.553L33.4199 65.8139Z" fill="#FF7569"/>
<path d="M91.9751 226.687C53.4522 208.723 7.6608 225.39 -10.3027 263.913C-28.2663 302.436 -11.5996 348.227 26.9234 366.191L163.613 429.93C202.136 447.894 247.928 431.227 265.891 392.704C283.855 354.181 267.188 308.39 228.665 290.426L91.9751 226.687Z" fill="#FF7569"/>
</g>
<defs>
<clipPath id="clip0_120_4187">
<rect width="602.982" height="260.582" fill="white" transform="translate(108.487 656.179) rotate(-110)"/>
</clipPath>
</defs>
</svg>
