<svg width="393" height="523" viewBox="0 0 393 523" fill="none" xmlns="http://www.w3.org/2000/svg">
<g clip-path="url(#clip0_120_4246)">
<path d="M205.146 290.797C205.118 338.392 243.679 376.953 291.274 376.925C338.869 376.897 377.476 338.291 377.503 290.696L377.603 121.813C377.631 74.2177 339.07 35.6569 291.475 35.6848C243.88 35.7128 205.273 74.3189 205.246 121.914L205.146 290.797Z" fill="#9BEA77"/>
<path d="M122.425 204.743C74.8299 204.771 36.2238 243.377 36.1959 290.972C36.1679 338.568 74.7287 377.128 122.324 377.1L291.207 377.001C338.802 376.973 377.408 338.367 377.436 290.772C377.464 243.177 338.903 204.616 291.308 204.644L122.425 204.743Z" fill="#9BEA77"/>
<path d="M35.6544 460.293C35.6265 507.888 74.1873 546.449 121.782 546.421C169.377 546.393 207.984 507.787 208.012 460.192L208.111 291.309C208.139 243.714 169.578 205.153 121.983 205.181C74.3877 205.209 35.7815 243.815 35.7536 291.41L35.6544 460.293Z" fill="#9BEA77"/>
<path d="M-47.0608 374.245C-94.6559 374.273 -133.262 412.879 -133.29 460.475C-133.318 508.07 -94.7571 546.63 -47.162 546.602L121.721 546.503C169.316 546.475 207.922 507.869 207.95 460.274C207.978 412.679 169.417 374.118 121.822 374.146L-47.0608 374.245Z" fill="#9BEA77"/>
</g>
<defs>
<clipPath id="clip0_120_4246">
<rect width="291.602" height="651.245" fill="white" transform="translate(37.1941 666.694) rotate(-135)"/>
</clipPath>
</defs>
</svg>
