<svg width="393" height="639" viewBox="0 0 393 639" fill="none" xmlns="http://www.w3.org/2000/svg">
<g clip-path="url(#clip0_120_4081)">
<path d="M-98.1722 552.689L-226.078 463.128L-84.5401 397.089L57.0243 331.046L43.3658 486.65L29.7338 642.25L-98.1722 552.689Z" fill="#FE8709"/>
<path d="M134.248 551.859C182.458 585.616 248.918 573.882 282.691 525.65C316.463 477.418 304.759 410.952 256.549 377.195L-54.5832 159.338C-102.794 125.581 -169.254 137.315 -203.026 185.547C-236.799 233.779 -225.095 300.245 -176.884 334.002L134.248 551.859Z" fill="#FE8709"/>
<path d="M46.7521 344.23C94.7311 377.825 160.872 366.147 194.483 318.147C228.093 270.146 216.445 203.999 168.466 170.404C120.487 136.809 54.346 148.487 20.7355 196.487C-12.8749 244.488 -1.22688 310.635 46.7521 344.23Z" fill="#FE8709"/>
</g>
<defs>
<clipPath id="clip0_120_4081">
<rect width="592.951" height="466.087" fill="white" transform="translate(-73.6941 0.841614) rotate(35)"/>
</clipPath>
</defs>
</svg>
