<svg width="12" height="16" viewBox="0 0 12 16" fill="none" xmlns="http://www.w3.org/2000/svg">
<path d="M10.3943 5.99022H9.97927V4.00391C9.97927 1.79613 8.1942 0 6 0C3.8058 0 2.02073 1.79613 2.02073 4.00391V5.99022H1.6057C0.718757 5.99022 0 6.71343 0 7.60587V14.3844C0 15.2768 0.718757 16 1.6057 16H10.3943C11.2812 16 12 15.2768 12 14.3844V7.60587C12 6.71343 11.2812 5.99022 10.3943 5.99022ZM3.20207 4.00391C3.20207 2.45146 4.4571 1.18866 6 1.18866C7.5429 1.18866 8.79793 2.45146 8.79793 4.00391V5.99022H3.20207V4.00391Z" fill="#1D1D1F"/>
</svg>
