<svg width="68" height="35" viewBox="0 0 68 35" fill="none" xmlns="http://www.w3.org/2000/svg">
<g clip-path="url(#clip0_383_3491)">
<path d="M23.6863 4.91747C21.2975 11.9437 16.5288 25.8562 13.5713 34.5012C9.42376 35.84 4.70751 34.4662 1.98626 30.7475C1.88126 30.6075 1.78501 30.4587 1.69751 30.3187L16.1438 8.77622C18.445 7.48997 20.9913 6.16872 23.6863 4.90872V4.91747Z" fill="#C5EF68"/>
<path d="M40.8625 0.332505L34.4137 19.845L24.8937 34.0463C23.1612 33.2413 21.6387 31.9638 20.5537 30.275C18.7862 31.4038 17.3775 32.3575 16.485 33.0138C15.575 33.67 14.595 34.1688 13.58 34.5013C16.5375 25.8563 21.2975 11.9525 23.695 4.9175C27.3875 3.19375 31.3512 1.60125 35.3675 0.420005C37.205 -0.122495 39.1037 -0.131245 40.8712 0.332505H40.8625Z" fill="#FBE338"/>
<path d="M47.1013 4.63746L37.6513 32.7162C35.84 33.4075 34.0025 34.0375 32.1563 34.58C31.2375 34.8512 30.3188 34.9825 29.4 34.9912L34.4138 19.845L45.6488 3.08871C46.095 3.53496 46.5063 4.04246 46.8738 4.58496L46.9175 4.65496C46.9175 4.65496 46.9525 4.70746 46.97 4.73371C47.0138 4.70746 47.0575 4.68121 47.1013 4.65496V4.63746Z" fill="#B07FFA"/>
<path d="M34.4138 19.845L29.4 34.9912C29.3475 34.9912 29.2863 34.9912 29.2338 34.9912C27.7375 34.9912 26.25 34.6587 24.8938 34.0375L34.4138 19.8362V19.845Z" fill="#FF9900"/>
<path d="M64.5487 3.10623L52.6662 25.4887C48.3875 27.93 43.1725 30.6075 37.6512 32.7162L47.1012 4.63748C48.8075 3.56123 50.1725 2.62498 51.0387 1.98623C55.2475 -1.08502 61.005 -0.516271 64.5487 3.10623Z" fill="#61B9EE"/>
<path d="M63.2625 18.7512C62.9388 18.9875 58.765 22.0062 52.6663 25.4975L64.5488 3.11499C64.89 3.46499 65.2225 3.84999 65.52 4.26124C68.8975 8.88999 67.8738 15.3825 63.2538 18.7512H63.2625Z" fill="#4093CF"/>
<path d="M16.1437 8.77621L1.69749 30.3187C-1.32126 25.725 -0.227506 19.5212 4.25249 16.2487C4.60249 15.995 9.34499 12.565 16.1437 8.77621Z" fill="#0FC45E"/>
<path d="M45.6487 3.08871L34.4137 19.845L40.8624 0.332458C42.6562 0.796208 44.3187 1.73246 45.6487 3.08871Z" fill="#F7FF00"/>
<path d="M29.2425 35C25.795 35 22.4875 33.2762 20.545 30.275C18.7775 31.395 17.3775 32.3575 16.485 33.005C11.8562 36.3825 5.37245 35.3675 1.99495 30.7387C-1.38255 26.11 -0.367546 19.6262 4.2612 16.2487C4.8912 15.7937 19.845 4.96123 35.3675 0.411226C39.6987 -0.857524 44.3625 0.822477 46.8825 4.57623L46.9262 4.63748C46.9262 4.63748 46.9612 4.68998 46.9787 4.71623C48.7462 3.59623 50.1462 2.63373 51.0387 1.98623C55.6675 -1.39127 62.1512 -0.376273 65.5287 4.25248C68.9062 8.88123 67.8912 15.365 63.2625 18.7425C62.6325 19.1975 47.6787 30.03 32.1562 34.58C31.1937 34.86 30.2137 35 29.2425 35Z" fill="url(#paint0_linear_383_3491)"/>
</g>
<g clip-path="url(#clip1_383_3491)">
<path d="M13.9093 17.2975H13.565C13.1883 17.2975 13.0002 17.1047 13.0002 16.719V16.4848C13.0002 16.0992 13.1883 15.9063 13.565 15.9063H13.9093V15.5758C13.9093 15.0158 14.0147 14.5682 14.2261 14.2328C14.4376 13.8974 14.6896 13.6384 14.9837 13.4545C15.2778 13.2707 15.5739 13.1494 15.8721 13.0895C16.1704 13.0296 16.4114 13 16.5953 13H16.8019C17.1786 13 17.3666 13.1949 17.3666 13.584V13.9456C17.3666 14.2975 17.169 14.4876 16.7743 14.5158C16.6642 14.5248 16.545 14.5406 16.4162 14.5634C16.2874 14.5861 16.1683 14.6364 16.0581 14.7135C15.9479 14.7906 15.8535 14.9022 15.7757 15.0475C15.6979 15.1928 15.6586 15.3933 15.6586 15.6474V15.9063H16.5953C16.972 15.9063 17.16 16.0992 17.16 16.4848V16.719C17.16 17.1047 16.972 17.2975 16.5953 17.2975H15.6586V22.2562C15.6586 22.6419 15.4658 22.8347 15.0801 22.8347H14.4741C14.0974 22.8347 13.9093 22.6419 13.9093 22.2562V17.2975Z" fill="white"/>
<path d="M17.6283 19.3223C17.6283 18.7803 17.7158 18.2844 17.89 17.8347C18.0642 17.385 18.308 16.9966 18.62 16.6708C18.932 16.345 19.3087 16.0923 19.7495 15.9132C20.1903 15.7342 20.6724 15.6446 21.1958 15.6446C21.6917 15.6446 22.1345 15.7293 22.525 15.8994C22.9155 16.0696 23.2412 16.301 23.503 16.595C23.7647 16.8891 23.9644 17.2424 24.1021 17.6556C24.2399 18.0689 24.3087 18.5145 24.3087 18.9917C24.3087 19.1481 24.2516 19.2858 24.1366 19.405C24.0215 19.5241 23.8769 19.584 23.7027 19.584H19.4189C19.4465 19.9056 19.5222 20.1853 19.6462 20.4242C19.7702 20.6632 19.9265 20.8629 20.1145 21.0234C20.3025 21.1839 20.5188 21.3058 20.7619 21.3884C21.005 21.4711 21.2598 21.5124 21.5264 21.5124C21.848 21.5124 22.1393 21.4621 22.401 21.3609C22.6627 21.2596 22.8762 21.1591 23.0415 21.0578C23.2158 20.9752 23.3652 20.9477 23.4892 20.9752C23.6131 21.0027 23.7213 21.0943 23.8129 21.2507L23.9782 21.5262C24.1524 21.8567 24.0884 22.1136 23.7853 22.2975C23.556 22.4442 23.2392 22.5985 22.8349 22.7589C22.4306 22.9194 21.9534 23 21.4024 23C20.8239 23 20.3005 22.9015 19.8322 22.7039C19.3638 22.5062 18.9665 22.2404 18.6407 21.905C18.3149 21.5696 18.0642 21.1797 17.89 20.7342C17.7158 20.2886 17.6283 19.8182 17.6283 19.3223ZM22.5732 18.5234C22.5546 18.0275 22.4148 17.6439 22.1531 17.3733C21.8914 17.1026 21.5587 16.9669 21.1545 16.9669C20.7047 16.9669 20.3301 17.1095 20.0319 17.3939C19.7337 17.6784 19.5429 18.0551 19.4603 18.5234H22.5732Z" fill="white"/>
<path d="M25.0388 20.8926C25.0388 20.553 25.1029 20.2569 25.2317 20.0041C25.3604 19.7514 25.5347 19.5358 25.7551 19.3567C25.9755 19.1777 26.2255 19.0331 26.5058 18.9229C26.7861 18.8127 27.0774 18.7252 27.3804 18.6612C27.6834 18.5971 27.9865 18.553 28.2895 18.5303C28.5925 18.5076 28.877 18.4959 29.1435 18.4959H29.4328V18.3306C29.4328 17.8712 29.304 17.5503 29.0471 17.3664C28.7902 17.1825 28.4823 17.0909 28.1242 17.0909C27.8301 17.0909 27.5547 17.1343 27.2978 17.2218C27.0409 17.3092 26.8295 17.3988 26.6642 17.4904C26.306 17.6467 26.0491 17.5682 25.8928 17.2562L25.7551 16.9945C25.5808 16.655 25.6538 16.3974 25.9755 16.2231C26.2048 16.104 26.5147 15.9773 26.9052 15.8443C27.2957 15.7114 27.7523 15.6446 28.2757 15.6446C29.1938 15.6446 29.908 15.8877 30.4176 16.3747C30.9272 16.8616 31.1821 17.5503 31.1821 18.4408V22.2562C31.1821 22.6419 30.9892 22.8347 30.6036 22.8347H30.1352C29.7585 22.8347 29.5705 22.6419 29.5705 22.2562V21.9807C29.5705 21.8705 29.5753 21.7968 29.5843 21.7603C29.5843 21.7238 29.5891 21.6963 29.598 21.6777H29.5705C29.4328 21.9256 29.2585 22.146 29.0471 22.3388C28.8632 22.5041 28.6339 22.6556 28.3584 22.7934C28.0829 22.9311 27.7523 23 27.3666 23C27.045 23 26.7447 22.9497 26.4644 22.8485C26.1841 22.7472 25.939 22.6054 25.7275 22.4215C25.5161 22.2376 25.3487 22.0172 25.2248 21.7603C25.1008 21.5034 25.0388 21.2142 25.0388 20.8926ZM26.7744 20.741C26.7744 20.98 26.8639 21.1935 27.0429 21.3815C27.222 21.5696 27.4858 21.6639 27.835 21.6639C28.0829 21.6639 28.3053 21.6088 28.503 21.4986C28.7007 21.3884 28.868 21.2438 29.0058 21.0647C29.1435 20.8857 29.2516 20.6859 29.3295 20.4656C29.4073 20.2452 29.4465 20.0296 29.4465 19.8182V19.5565H29.1573C28.9369 19.5565 28.689 19.5702 28.4135 19.5978C28.138 19.6253 27.8783 19.6804 27.6352 19.7631C27.3921 19.8457 27.1876 19.9649 27.0223 20.1212C26.857 20.2775 26.7744 20.4842 26.7744 20.741Z" fill="white"/>
<path d="M32.8074 16.3884C32.8074 16.0027 32.9954 15.8099 33.3721 15.8099H33.9093C34.286 15.8099 34.474 16.0027 34.474 16.3884V16.8154C34.474 16.8616 34.472 16.9029 34.4672 16.9394C34.4623 16.9759 34.4603 17.0083 34.4603 17.0358C34.4513 17.0723 34.4465 17.1047 34.4465 17.1322H34.474C34.5477 16.9855 34.6531 16.8244 34.7908 16.6501C34.9286 16.4759 35.0987 16.3147 35.3005 16.168C35.5023 16.0213 35.7413 15.8974 36.0167 15.7961C36.2922 15.6949 36.609 15.6446 36.9672 15.6446C37.7475 15.6446 38.3514 15.8561 38.7784 16.2782C39.2054 16.7004 39.4189 17.3802 39.4189 18.3168V22.2562C39.4189 22.6419 39.2261 22.8347 38.8404 22.8347H38.2481C37.8625 22.8347 37.6696 22.6419 37.6696 22.2562V18.6749C37.6696 18.2431 37.5959 17.8967 37.4492 17.635C37.3026 17.3733 37.0085 17.2424 36.5677 17.2424C36.2557 17.2424 35.9754 17.3023 35.7275 17.4215C35.4795 17.5406 35.2681 17.7059 35.0939 17.9174C34.9196 18.1288 34.784 18.374 34.6875 18.6543C34.5911 18.9346 34.5429 19.2307 34.5429 19.5427V22.2562C34.5429 22.6419 34.3549 22.8347 33.9782 22.8347H33.3721C32.9954 22.8347 32.8074 22.6419 32.8074 22.2562V16.3884Z" fill="white"/>
<path d="M40.9617 16.3884C40.9617 16.0027 41.1545 15.8099 41.5402 15.8099H42.1325C42.5181 15.8099 42.711 16.0027 42.711 16.3884V19.9697C42.711 20.4015 42.7847 20.7479 42.9314 21.0096C43.0781 21.2713 43.3673 21.4022 43.7991 21.4022C44.1111 21.4022 44.3914 21.3381 44.6394 21.2094C44.8873 21.0806 45.0939 20.9063 45.2592 20.6859C45.4245 20.4656 45.5505 20.2128 45.638 19.9284C45.7254 19.6439 45.7688 19.345 45.7688 19.033V16.3884C45.7688 16.0027 45.9617 15.8099 46.3473 15.8099H46.9396C47.3253 15.8099 47.5181 16.0027 47.5181 16.3884V22.2562C47.5181 22.6419 47.3253 22.8347 46.9396 22.8347H46.4024C46.0257 22.8347 45.8377 22.6419 45.8377 22.2562V21.719C45.8377 21.6825 45.8425 21.6501 45.8515 21.6226C45.8515 21.5861 45.8556 21.5537 45.8653 21.5262H45.8377C45.7551 21.71 45.638 21.8891 45.4865 22.0634C45.3349 22.2376 45.1538 22.3939 44.9424 22.5317C44.731 22.6694 44.4968 22.7817 44.2399 22.8691C43.983 22.9566 43.7027 23 43.3997 23C42.6469 23 42.0519 22.7934 41.6159 22.3802C41.18 21.9669 40.9617 21.283 40.9617 20.3278V16.3884Z" fill="white"/>
<path d="M49.6256 17.2975H49.2537C48.877 17.2975 48.689 17.1047 48.689 16.719V16.4849C48.689 16.0992 48.8818 15.9063 49.2675 15.9063H49.6669V14.4738C49.6669 14.0882 49.8598 13.8953 50.2454 13.8953H50.7964C51.1821 13.8953 51.3749 14.0882 51.3749 14.4738V15.9063H52.3942C52.7799 15.9063 52.9727 16.0992 52.9727 16.4849V16.719C52.9727 17.1047 52.7847 17.2975 52.408 17.2975H51.3749V20.0248C51.3749 20.2913 51.4114 20.5048 51.4851 20.6653C51.5588 20.8258 51.6504 20.9546 51.7606 21.051C51.8708 21.1474 51.9927 21.2163 52.1256 21.2576C52.2585 21.2989 52.3852 21.3244 52.5044 21.3333C52.7158 21.3519 52.8646 21.4022 52.952 21.4849C53.0395 21.5675 53.0829 21.7052 53.0829 21.8981V22.3251C53.0829 22.5365 53.023 22.6853 52.9038 22.7727C52.7847 22.8602 52.6056 22.9036 52.3666 22.9036C52.0547 22.9036 51.7351 22.8574 51.4094 22.7658C51.0836 22.6743 50.7895 22.5269 50.5278 22.3251C50.2661 22.1233 50.0505 21.8588 49.8804 21.5331C49.7103 21.2073 49.6256 20.8051 49.6256 20.3278V17.2975Z" fill="white"/>
</g>
<defs>
<linearGradient id="paint0_linear_383_3491" x1="33.7575" y1="-0.883774" x2="33.7575" y2="36.8112" gradientUnits="userSpaceOnUse">
<stop stop-color="white" stop-opacity="0.5"/>
<stop offset="0.5" stop-color="white" stop-opacity="0.05"/>
<stop offset="1" stop-opacity="0.05"/>
</linearGradient>
<clipPath id="clip0_383_3491">
<rect width="67.515" height="35" fill="white"/>
</clipPath>
<clipPath id="clip1_383_3491">
<rect width="40.0826" height="10" fill="white" transform="translate(13.0002 13)"/>
</clipPath>
</defs>
</svg>
