<svg width="41" height="10" viewBox="0 0 41 10" fill="none" xmlns="http://www.w3.org/2000/svg">
<g clip-path="url(#clip0_175_3564)">
<path d="M0.909091 4.29752H0.564738C0.188017 4.29752 0 4.10468 0 3.71901V3.48485C0 3.09917 0.188017 2.90634 0.564738 2.90634H0.909091V2.57576C0.909091 2.01584 1.01446 1.56818 1.2259 1.23278C1.43733 0.897383 1.68939 0.63843 1.98347 0.454545C2.27755 0.270661 2.57369 0.149449 2.8719 0.0895317C3.17011 0.0296143 3.41116 0 3.59504 0H3.80165C4.17837 0 4.36639 0.194904 4.36639 0.584022V0.945592C4.36639 1.29752 4.16873 1.4876 3.7741 1.51584C3.66391 1.52479 3.54477 1.54063 3.41598 1.56336C3.28719 1.58609 3.16804 1.63636 3.05785 1.7135C2.94766 1.79063 2.85331 1.9022 2.77548 2.04752C2.69766 2.19284 2.6584 2.39325 2.6584 2.64738V2.90634H3.59504C3.97176 2.90634 4.15978 3.09917 4.15978 3.48485V3.71901C4.15978 4.10468 3.97176 4.29752 3.59504 4.29752H2.6584V9.2562C2.6584 9.64187 2.46556 9.83471 2.07989 9.83471H1.47383C1.09711 9.83471 0.909091 9.64187 0.909091 9.2562V4.29752Z" fill="white"/>
<path d="M4.62811 6.32231C4.62811 5.7803 4.71558 5.28443 4.88982 4.83471C5.06406 4.38498 5.30786 3.99655 5.61985 3.67079C5.93183 3.34504 6.30855 3.09228 6.74933 2.91322C7.1901 2.73415 7.67219 2.64462 8.19561 2.64462C8.69147 2.64462 9.13431 2.72933 9.52481 2.89944C9.9153 3.06955 10.2411 3.30096 10.5028 3.59504C10.7645 3.88911 10.9642 4.24242 11.1019 4.65564C11.2397 5.06887 11.3086 5.51446 11.3086 5.99173C11.3086 6.14807 11.2514 6.28581 11.1364 6.40495C11.0214 6.5241 10.8767 6.58402 10.7025 6.58402H6.41875C6.44629 6.90564 6.52205 7.18526 6.64602 7.42424C6.76999 7.66322 6.92632 7.86294 7.11434 8.02341C7.30236 8.18388 7.51861 8.30578 7.76172 8.38842C8.00483 8.47107 8.25966 8.51239 8.52618 8.51239C8.84781 8.51239 9.13913 8.46212 9.40084 8.36088C9.66255 8.25964 9.87605 8.15909 10.0413 8.05785C10.2156 7.9752 10.365 7.94765 10.489 7.9752C10.613 8.00275 10.7211 8.09435 10.8127 8.25068L10.978 8.52617C11.1522 8.85674 11.0882 9.11363 10.7851 9.29752C10.5558 9.44421 10.239 9.59848 9.83472 9.75895C9.43045 9.91942 8.95318 10 8.40222 10C7.82371 10 7.30029 9.90151 6.83197 9.70385C6.36365 9.50619 5.96627 9.24035 5.64051 8.90495C5.31475 8.56955 5.06406 8.17975 4.88982 7.73416C4.71558 7.28856 4.62811 6.81818 4.62811 6.32231ZM9.57302 5.52341C9.55442 5.02754 9.41461 4.64393 9.15291 4.37327C8.8912 4.10261 8.55855 3.96694 8.15428 3.96694C7.70456 3.96694 7.3299 4.1095 7.03169 4.39393C6.73348 4.67837 6.54271 5.05509 6.46007 5.52341H9.57302Z" fill="white"/>
<path d="M12.0386 7.89256C12.0386 7.55303 12.1026 7.25688 12.2314 7.00413C12.3602 6.75137 12.5344 6.53581 12.7548 6.35674C12.9752 6.17768 13.2252 6.03305 13.5055 5.92286C13.7858 5.81267 14.0771 5.7252 14.3802 5.66115C14.6832 5.5971 14.9862 5.55303 15.2893 5.5303C15.5923 5.50757 15.8767 5.49586 16.1433 5.49586H16.4325V5.33057C16.4325 4.87121 16.3037 4.55027 16.0468 4.36639C15.79 4.1825 15.4821 4.0909 15.124 4.0909C14.8299 4.0909 14.5544 4.13429 14.2975 4.22176C14.0406 4.30922 13.8292 4.39875 13.6639 4.49035C13.3058 4.64669 13.0489 4.56818 12.8926 4.25619L12.7548 3.99449C12.5806 3.65495 12.6536 3.39738 12.9752 3.22314C13.2046 3.10399 13.5145 2.97727 13.905 2.84435C14.2955 2.71143 14.7521 2.64462 15.2755 2.64462C16.1935 2.64462 16.9077 2.88774 17.4174 3.37465C17.927 3.86156 18.1818 4.55027 18.1818 5.44077V9.25619C18.1818 9.64187 17.989 9.83471 17.6033 9.83471H17.135C16.7583 9.83471 16.5703 9.64187 16.5703 9.25619V8.98071C16.5703 8.87052 16.5751 8.79683 16.584 8.76033C16.584 8.72382 16.5888 8.69628 16.5978 8.67768H16.5703C16.4325 8.92561 16.2583 9.146 16.0468 9.33884C15.863 9.50413 15.6336 9.65564 15.3581 9.79338C15.0827 9.93112 14.7521 10 14.3664 10C14.0448 10 13.7445 9.94972 13.4642 9.84848C13.1839 9.74724 12.9387 9.60537 12.7273 9.42148C12.5158 9.2376 12.3485 9.01721 12.2245 8.76033C12.1006 8.50344 12.0386 8.21418 12.0386 7.89256ZM13.7741 7.74104C13.7741 7.98002 13.8636 8.19352 14.0427 8.38154C14.2218 8.56955 14.4855 8.66391 14.8347 8.66391C15.0827 8.66391 15.3051 8.60881 15.5028 8.49862C15.7004 8.38842 15.8678 8.2438 16.0055 8.06473C16.1433 7.88567 16.2514 7.68595 16.3292 7.46556C16.407 7.24517 16.4463 7.02961 16.4463 6.81818V6.55647H16.157C15.9366 6.55647 15.6887 6.57024 15.4132 6.59779C15.1377 6.62534 14.8781 6.68044 14.635 6.76308C14.3919 6.84572 14.1873 6.96487 14.022 7.12121C13.8568 7.27754 13.7741 7.48415 13.7741 7.74104Z" fill="white"/>
<path d="M19.8072 3.38842C19.8072 3.00275 19.9952 2.80991 20.3719 2.80991H20.9091C21.2858 2.80991 21.4739 3.00275 21.4739 3.38842V3.81542C21.4739 3.86157 21.4718 3.90289 21.467 3.93939C21.4621 3.97589 21.4601 4.00826 21.4601 4.03581C21.4511 4.07231 21.4463 4.10468 21.4463 4.13223H21.4739C21.5475 3.98553 21.6529 3.82437 21.7907 3.65013C21.9284 3.47589 22.0985 3.31473 22.3003 3.16804C22.5021 3.02134 22.7411 2.89738 23.0166 2.79614C23.292 2.6949 23.6088 2.64462 23.967 2.64462C24.7473 2.64462 25.3513 2.85606 25.7783 3.27823C26.2053 3.70041 26.4188 4.38016 26.4188 5.3168V9.25619C26.4188 9.64187 26.2259 9.83471 25.8402 9.83471H25.248C24.8623 9.83471 24.6694 9.64187 24.6694 9.25619V5.67493C24.6694 5.24311 24.5958 4.89669 24.4491 4.63498C24.3024 4.37327 24.0083 4.24242 23.5675 4.24242C23.2555 4.24242 22.9752 4.30234 22.7273 4.42148C22.4794 4.54063 22.2679 4.70592 22.0937 4.91735C21.9194 5.12878 21.7838 5.37396 21.6874 5.65426C21.5909 5.93457 21.5427 6.23071 21.5427 6.54269V9.25619C21.5427 9.64187 21.3547 9.83471 20.978 9.83471H20.3719C19.9952 9.83471 19.8072 9.64187 19.8072 9.25619V3.38842Z" fill="white"/>
<path d="M27.9614 3.38842C27.9614 3.00274 28.1543 2.80991 28.5399 2.80991H29.1322C29.5179 2.80991 29.7107 3.00274 29.7107 3.38842V6.96969C29.7107 7.4015 29.7844 7.74792 29.9311 8.00963C30.0778 8.27134 30.3671 8.40219 30.7989 8.40219C31.1109 8.40219 31.3912 8.33814 31.6391 8.20935C31.887 8.08057 32.0937 7.90633 32.2589 7.68594C32.4242 7.46555 32.5503 7.2128 32.6377 6.92836C32.7252 6.64393 32.7686 6.34503 32.7686 6.03305V3.38842C32.7686 3.00274 32.9614 2.80991 33.3471 2.80991H33.9394C34.3251 2.80991 34.5179 3.00274 34.5179 3.38842V9.25619C34.5179 9.64186 34.3251 9.8347 33.9394 9.8347H33.4022C33.0255 9.8347 32.8375 9.64186 32.8375 9.25619V8.719C32.8375 8.6825 32.8423 8.65013 32.8512 8.62258C32.8512 8.58608 32.8554 8.55371 32.865 8.52616H32.8375C32.7548 8.71004 32.6377 8.88911 32.4862 9.06335C32.3347 9.23759 32.1536 9.39393 31.9421 9.53167C31.7307 9.66941 31.4966 9.78167 31.2397 9.86914C30.9828 9.9566 30.7025 9.99999 30.3994 9.99999C29.6467 9.99999 29.0516 9.79338 28.6157 9.38015C28.1797 8.96693 27.9614 8.28305 27.9614 7.32781V3.38842Z" fill="white"/>
<path d="M36.6254 4.29753H36.2535C35.8767 4.29753 35.6887 4.10469 35.6887 3.71902V3.48486C35.6887 3.09918 35.8816 2.90634 36.2672 2.90634H36.6667V1.47384C36.6667 1.08816 36.8595 0.895325 37.2452 0.895325H37.7962C38.1818 0.895325 38.3747 1.08816 38.3747 1.47384V2.90634H39.394C39.7796 2.90634 39.9725 3.09918 39.9725 3.48486V3.71902C39.9725 4.10469 39.7845 4.29753 39.4077 4.29753H38.3747V7.0248C38.3747 7.29133 38.4112 7.50483 38.4849 7.6653C38.5586 7.82577 38.6502 7.95455 38.7603 8.05097C38.8705 8.14739 38.9924 8.21626 39.1254 8.25758C39.2583 8.29891 39.385 8.32439 39.5041 8.33334C39.7156 8.35194 39.8643 8.40221 39.9518 8.48486C40.0393 8.5675 40.0827 8.70524 40.0827 8.89808V9.32508C40.0827 9.53651 40.0227 9.68527 39.9036 9.77273C39.7845 9.8602 39.6054 9.90359 39.3664 9.90359C39.0544 9.90359 38.7349 9.85745 38.4091 9.76585C38.0833 9.67425 37.7893 9.52687 37.5276 9.32508C37.2659 9.12329 37.0503 8.85882 36.8802 8.53307C36.7101 8.20731 36.6254 7.8051 36.6254 7.32783V4.29753Z" fill="white"/>
</g>
<defs>
<clipPath id="clip0_175_3564">
<rect width="40.0826" height="10" fill="white"/>
</clipPath>
</defs>
</svg>
