<svg width="29" height="15" viewBox="0 0 29 15" fill="none" xmlns="http://www.w3.org/2000/svg">
<g clip-path="url(#clip0_283_3511)">
<path d="M10.1513 2.10751C9.12754 5.11876 7.08379 11.0813 5.81629 14.7863C4.03879 15.36 2.01754 14.7713 0.851289 13.1775C0.806289 13.1175 0.765039 13.0538 0.727539 12.9938L6.91879 3.76126C7.90504 3.21001 8.99629 2.64376 10.1513 2.10376V2.10751Z" fill="#C5EF68"/>
<path d="M17.5125 0.142515L14.7488 8.50502L10.6688 14.5913C9.92626 14.2463 9.27376 13.6988 8.80876 12.975C8.05126 13.4588 7.44751 13.8675 7.06501 14.1488C6.67501 14.43 6.25501 14.6438 5.82001 14.7863C7.08751 11.0813 9.12751 5.12251 10.155 2.10751C11.7375 1.36876 13.4363 0.686265 15.1575 0.180015C15.945 -0.052485 16.7588 -0.0562349 17.5163 0.142515H17.5125Z" fill="#FBE338"/>
<path d="M20.1863 1.98751L16.1363 14.0213C15.36 14.3175 14.5725 14.5875 13.7813 14.82C13.3875 14.9363 12.9938 14.9925 12.6 14.9963L14.7488 8.50501L19.5638 1.32376C19.755 1.51501 19.9313 1.73251 20.0888 1.96501L20.1075 1.99501C20.1075 1.99501 20.1225 2.01751 20.13 2.02876C20.1488 2.01751 20.1675 2.00626 20.1863 1.99501V1.98751Z" fill="#B07FFA"/>
<path d="M14.7488 8.505L12.6 14.9963C12.5775 14.9963 12.5513 14.9963 12.5288 14.9963C11.8875 14.9963 11.25 14.8538 10.6688 14.5875L14.7488 8.50125V8.505Z" fill="#FF9900"/>
<path d="M27.6638 1.33125L22.5713 10.9237C20.7375 11.97 18.5025 13.1175 16.1363 14.0212L20.1863 1.9875C20.9175 1.52625 21.5025 1.125 21.8738 0.85125C23.6775 -0.465 26.145 -0.22125 27.6638 1.33125Z" fill="#61B9EE"/>
<path d="M27.1125 8.03624C26.9738 8.13749 25.185 9.43124 22.5713 10.9275L27.6638 1.33499C27.81 1.48499 27.9525 1.64999 28.08 1.82624C29.5275 3.80999 29.0888 6.59249 27.1088 8.03624H27.1125Z" fill="#4093CF"/>
<path d="M6.91877 3.76126L0.727524 12.9938C-0.566226 11.025 -0.0974763 8.36626 1.82252 6.96376C1.97252 6.85501 4.00502 5.38501 6.91877 3.76126Z" fill="#0FC45E"/>
<path d="M19.5638 1.32374L14.7488 8.50499L17.5125 0.142487C18.2813 0.341237 18.9938 0.742487 19.5638 1.32374Z" fill="#F7FF00"/>
<path d="M12.5325 15C11.055 15 9.63752 14.2613 8.80502 12.975C8.04752 13.455 7.44752 13.8675 7.06502 14.145C5.08127 15.5925 2.30252 15.1575 0.855015 13.1738C-0.592485 11.19 -0.157485 8.41126 1.82627 6.96376C2.09627 6.76876 8.50501 2.12626 15.1575 0.176262C17.0138 -0.367488 19.0125 0.352512 20.0925 1.96126L20.1113 1.98751C20.1113 1.98751 20.1263 2.01001 20.1338 2.02126C20.8913 1.54126 21.4913 1.12876 21.8738 0.851262C23.8575 -0.596238 26.6363 -0.161238 28.0838 1.82251C29.5313 3.80626 29.0963 6.58501 27.1125 8.03251C26.8425 8.22751 20.4338 12.87 13.7813 14.82C13.3688 14.94 12.9488 15 12.5325 15Z" fill="url(#paint0_linear_283_3511)"/>
</g>
<defs>
<linearGradient id="paint0_linear_283_3511" x1="14.4675" y1="-0.378738" x2="14.4675" y2="15.7763" gradientUnits="userSpaceOnUse">
<stop stop-color="white" stop-opacity="0.5"/>
<stop offset="0.5" stop-color="white" stop-opacity="0.05"/>
<stop offset="1" stop-opacity="0.05"/>
</linearGradient>
<clipPath id="clip0_283_3511">
<rect width="28.935" height="15" fill="white"/>
</clipPath>
</defs>
</svg>
