<svg width="29" height="15" viewBox="0 0 29 15" fill="none" xmlns="http://www.w3.org/2000/svg">
<path d="M12.5325 15C11.055 15 9.63752 14.2613 8.80502 12.975C8.04751 13.455 7.44752 13.8675 7.06502 14.145C5.08127 15.5925 2.30252 15.1575 0.855015 13.1738C-0.592485 11.19 -0.157485 8.41126 1.82627 6.96376C2.09627 6.76876 8.50501 2.12626 15.1575 0.176262C17.0138 -0.367488 19.0125 0.352512 20.0925 1.96126L20.1113 1.98751C20.1113 1.98751 20.1263 2.01001 20.1338 2.02126C20.8913 1.54126 21.4913 1.12876 21.8738 0.851262C23.8575 -0.596238 26.6363 -0.161238 28.0838 1.82251C29.5313 3.80626 29.0963 6.58501 27.1125 8.03251C26.8425 8.22751 20.4338 12.87 13.7813 14.82C13.3688 14.94 12.9488 15 12.5325 15Z" fill="url(#paint0_linear_283_3521)"/>
<defs>
<linearGradient id="paint0_linear_283_3521" x1="14.4675" y1="-0.378738" x2="14.4675" y2="15.7763" gradientUnits="userSpaceOnUse">
<stop stop-color="white" stop-opacity="0.5"/>
<stop offset="0.5" stop-color="white" stop-opacity="0.05"/>
<stop offset="1" stop-opacity="0.05"/>
</linearGradient>
</defs>
</svg>
