<svg width="68" height="35" viewBox="0 0 68 35" fill="none" xmlns="http://www.w3.org/2000/svg">
<path d="M29.2426 35C25.794 35 22.491 33.2733 20.546 30.2758C18.7805 31.3962 17.3739 32.3566 16.4814 33.0065C11.8542 36.3823 5.36929 35.3686 1.99346 30.7414C-1.38237 26.1142 -0.368651 19.6293 4.25857 16.2535C4.88911 15.7927 19.8378 4.96674 35.3637 0.417128C39.6999 -0.853659 44.3611 0.829406 46.8833 4.57871L46.9221 4.64177C46.9415 4.67087 46.9609 4.69512 46.9754 4.72422C48.741 3.6038 50.1427 2.64343 51.04 1.99349C55.6672 -1.38235 62.1521 -0.368626 65.528 4.25859C68.9038 8.88581 67.8901 15.3707 63.2629 18.7465C62.6323 19.2073 47.6836 30.0333 32.1577 34.5829C31.1925 34.8642 30.2127 35 29.2426 35Z" fill="currentColor"/>
</svg>
