<svg width="61" height="15" viewBox="0 0 61 15" fill="none" xmlns="http://www.w3.org/2000/svg">
<path d="M1.36652 6.44785H0.848563C0.283773 6.44785 0 6.15864 0 5.58024V5.22769C0 4.64928 0.281018 4.36008 0.848563 4.36008H1.36652V3.8643C1.36652 3.02424 1.52356 2.35218 1.84315 1.8509C2.15998 1.34961 2.53742 0.958501 2.97824 0.68307C3.41905 0.407638 3.86262 0.225854 4.31169 0.134961C4.75802 0.0468233 5.12168 0 5.39719 0H5.70576C6.27055 0 6.55432 0.291957 6.55432 0.875872V1.41847C6.55432 1.9473 6.25677 2.23099 5.66443 2.27231C5.49913 2.28608 5.32005 2.31087 5.12719 2.34392C4.93434 2.37697 4.75526 2.45409 4.58995 2.56977C4.42465 2.68546 4.28414 2.85347 4.16567 3.07106C4.04721 3.28865 3.98935 3.58887 3.98935 3.97172V4.36008H5.39444C5.95923 4.36008 6.243 4.64928 6.243 5.22769V5.58024C6.243 6.15864 5.95923 6.44785 5.39444 6.44785H3.98935V13.8845C3.98935 14.4629 3.70006 14.7521 3.1215 14.7521H2.21233C1.64754 14.7521 1.36376 14.4629 1.36376 13.8845V6.44785H1.36652Z" fill="#1D1D1F"/>
<path d="M6.94556 9.4831C6.94556 8.67058 7.07504 7.92691 7.33953 7.2521C7.60126 6.5773 7.96493 5.99614 8.4333 5.50587C8.90166 5.01836 9.46645 4.63826 10.1277 4.37109C10.7889 4.10117 11.5107 3.96896 12.2987 3.96896C13.0425 3.96896 13.7065 4.09566 14.2933 4.35181C14.8774 4.60796 15.3678 4.95501 15.7618 5.3957C16.153 5.83639 16.4533 6.36522 16.6599 6.98494C16.8666 7.60466 16.9685 8.27396 16.9685 8.99008C16.9685 9.22419 16.8831 9.43077 16.7095 9.6098C16.536 9.78883 16.3211 9.87696 16.0593 9.87696H9.63451C9.67583 10.359 9.78879 10.7804 9.97614 11.1384C10.1607 11.4965 10.3949 11.7967 10.6787 12.0363C10.9597 12.2787 11.2848 12.4605 11.6512 12.5845C12.0149 12.7084 12.3978 12.769 12.7973 12.769C13.2795 12.769 13.7175 12.6946 14.1087 12.5431C14.5 12.3917 14.8223 12.2402 15.0703 12.0887C15.332 11.9647 15.5552 11.9234 15.7425 11.9647C15.9299 12.006 16.0896 12.1438 16.2274 12.3779L16.4754 12.791C16.7371 13.2868 16.6407 13.6724 16.1861 13.9478C15.8417 14.1682 15.3651 14.3995 14.7617 14.6392C14.1556 14.8788 13.4393 15 12.6127 15C11.7449 15 10.9597 14.8513 10.2572 14.5565C9.55461 14.2618 8.95952 13.8625 8.46911 13.3584C7.97871 12.8571 7.60402 12.2705 7.34229 11.6012C7.08056 10.9346 6.94831 10.2268 6.94831 9.4831H6.94556ZM14.365 8.28497C14.3374 7.54131 14.128 6.96566 13.7341 6.56077C13.3428 6.15589 12.8414 5.95207 12.2353 5.95207C11.5603 5.95207 10.9983 6.16691 10.5519 6.59382C10.1056 7.02074 9.8191 7.58538 9.69512 8.28773H14.365V8.28497Z" fill="#1D1D1F"/>
<path d="M18.0623 11.838C18.0623 11.3285 18.1587 10.885 18.3515 10.5049C18.5444 10.1276 18.8061 9.8026 19.1367 9.53543C19.4674 9.26826 19.842 9.05067 20.2636 8.88541C20.6851 8.72015 21.1204 8.5907 21.575 8.49155C22.0296 8.39514 22.4842 8.32904 22.9387 8.29599C23.3933 8.26294 23.8204 8.24366 24.2199 8.24366H24.6524V7.99577C24.6524 7.30719 24.4595 6.82519 24.0738 6.54976C23.6881 6.27432 23.2253 6.13661 22.688 6.13661C22.2472 6.13661 21.834 6.20271 21.4483 6.33216C21.0625 6.46437 20.7457 6.59658 20.4978 6.73429C19.9605 6.96841 19.5748 6.85273 19.3406 6.3845L19.134 5.99338C18.8723 5.48384 18.9825 5.09823 19.4646 4.83657C19.809 4.65754 20.2746 4.46749 20.8587 4.26918C21.4427 4.07087 22.1288 3.96896 22.9139 3.96896C24.2915 3.96896 25.3632 4.33529 26.1264 5.06518C26.8895 5.79507 27.2725 6.82794 27.2725 8.16378V13.8845C27.2725 14.4629 26.9832 14.7521 26.4046 14.7521H25.7021C25.1373 14.7521 24.8535 14.4629 24.8535 13.8845V13.4713C24.8535 13.3061 24.8618 13.1959 24.8756 13.1408C24.8756 13.0857 24.8811 13.0444 24.8976 13.0169H24.8563C24.6496 13.3887 24.3879 13.7192 24.0711 14.0084C23.7956 14.2563 23.4512 14.4849 23.0379 14.6915C22.6247 14.8981 22.1288 15 21.5502 15C21.068 15 20.6162 14.9229 20.1974 14.7741C19.7759 14.6226 19.4095 14.4106 19.0927 14.1324C18.7758 13.8569 18.5251 13.5264 18.3378 13.1408C18.1532 12.7552 18.0595 12.3228 18.0595 11.838H18.0623ZM20.6658 11.6122C20.6658 11.9702 20.8008 12.2897 21.068 12.5734C21.3353 12.8571 21.732 12.9976 22.2555 12.9976C22.6274 12.9976 22.9608 12.915 23.2583 12.7497C23.5559 12.5845 23.8066 12.3669 24.0132 12.0997C24.2199 11.8325 24.3824 11.5323 24.4981 11.2018C24.6138 10.8713 24.6744 10.549 24.6744 10.2323V9.8384H24.2391C23.9085 9.8384 23.5366 9.86044 23.1233 9.90175C22.7101 9.94307 22.3216 10.0257 21.9552 10.1496C21.5888 10.2736 21.2829 10.4526 21.035 10.6867C20.787 10.9209 20.6631 11.2321 20.6631 11.6177L20.6658 11.6122Z" fill="#1D1D1F"/>
<path d="M29.7162 5.08445C29.7162 4.50605 29.9972 4.21684 30.5648 4.21684H31.3692C31.934 4.21684 32.2178 4.50605 32.2178 5.08445V5.72621C32.2178 5.79507 32.2151 5.85842 32.2068 5.91075C32.1985 5.96583 32.1958 6.01541 32.1958 6.05397C32.182 6.10906 32.1765 6.15864 32.1765 6.19995H32.2178C32.328 5.9796 32.4878 5.73998 32.6944 5.47832C32.9011 5.21666 33.1545 4.97703 33.4576 4.75669C33.7607 4.53634 34.1188 4.35181 34.5321 4.19756C34.9453 4.04608 35.4192 3.97171 35.9564 3.97171C37.1274 3.97171 38.0338 4.28846 38.673 4.92195C39.3149 5.55544 39.6345 6.57454 39.6345 7.97924V13.8872C39.6345 14.4656 39.3452 14.7548 38.7666 14.7548H37.8767C37.2982 14.7548 37.0089 14.4656 37.0089 13.8872V8.51633C37.0089 7.86906 36.8987 7.3485 36.6783 6.95739C36.4579 6.56627 36.0171 6.36796 35.3558 6.36796C34.8875 6.36796 34.466 6.45886 34.094 6.63789C33.7221 6.81692 33.4052 7.0648 33.1435 7.38155C32.8818 7.6983 32.6779 8.06737 32.5346 8.48603C32.3886 8.90744 32.317 9.35088 32.317 9.81912V13.8872C32.317 14.4656 32.0332 14.7548 31.4684 14.7548H30.5593C29.9945 14.7548 29.7107 14.4656 29.7107 13.8872V5.08721L29.7162 5.08445Z" fill="#1D1D1F"/>
<path d="M41.9488 5.08447C41.9488 4.50606 42.2381 4.21686 42.8166 4.21686H43.7065C44.2851 4.21686 44.5744 4.50606 44.5744 5.08447V10.4554C44.5744 11.1026 44.6846 11.6232 44.905 12.0143C45.1254 12.4054 45.5579 12.6037 46.2081 12.6037C46.6765 12.6037 47.0953 12.5073 47.4672 12.3145C47.8391 12.1217 48.1505 11.8601 48.3984 11.5296C48.6464 11.199 48.8365 10.8217 48.966 10.3948C49.0955 9.96786 49.1616 9.52167 49.1616 9.05068V5.08447C49.1616 4.50606 49.4509 4.21686 50.0294 4.21686H50.9166C51.4951 4.21686 51.7844 4.50606 51.7844 5.08447V13.8845C51.7844 14.4629 51.4951 14.7521 50.9166 14.7521H50.1121C49.5473 14.7521 49.2635 14.4629 49.2635 13.8845V13.0775C49.2635 13.0224 49.269 12.9728 49.2856 12.9343C49.2856 12.8792 49.2911 12.8296 49.3076 12.791H49.2663C49.1423 13.0665 48.966 13.3364 48.74 13.5953C48.5114 13.857 48.2414 14.0911 47.9245 14.2976C47.6077 14.5042 47.2551 14.6722 46.8694 14.8044C46.4836 14.9339 46.0649 15 45.6075 15C44.4779 15 43.5853 14.6915 42.9324 14.069C42.2766 13.4493 41.9515 12.4247 41.9515 10.9925V5.08447H41.9488Z" fill="#1D1D1F"/>
<path d="M54.9472 6.44786H54.3879C53.8231 6.44786 53.5394 6.15866 53.5394 5.58025V5.2277C53.5394 4.64929 53.8286 4.36009 54.4072 4.36009H55.0051V2.21172C55.0051 1.63332 55.2944 1.34412 55.8729 1.34412H56.6994C57.278 1.34412 57.5673 1.63332 57.5673 2.21172V4.36009H59.0964C59.6749 4.36009 59.9642 4.64929 59.9642 5.2277V5.58025C59.9642 6.15866 59.6804 6.44786 59.1156 6.44786H57.5673V10.538C57.5673 10.9374 57.6224 11.2569 57.7326 11.4993C57.8428 11.7416 57.9805 11.9345 58.1459 12.0777C58.3112 12.2209 58.493 12.3256 58.6941 12.3862C58.8925 12.4495 59.0826 12.4853 59.2617 12.4991C59.5785 12.5266 59.8016 12.6037 59.9339 12.7249C60.0634 12.8489 60.1295 13.0555 60.1295 13.3447V13.9864C60.1295 14.3032 60.0386 14.5263 59.8595 14.6585C59.6804 14.7879 59.4132 14.854 59.055 14.854C58.5867 14.854 58.1073 14.7852 57.6196 14.6474C57.1292 14.5097 56.6884 14.2894 56.2972 13.9864C55.906 13.6834 55.5809 13.2868 55.3274 12.7993C55.0712 12.3118 54.9445 11.7086 54.9445 10.9925V6.44786H54.9472Z" fill="#1D1D1F"/>
</svg>
