<svg width="68" height="35" viewBox="0 0 68 35" fill="none" xmlns="http://www.w3.org/2000/svg">
<g clip-path="url(#clip0_978_5985)">
<path d="M29.2426 35.0002C25.794 35.0002 22.491 33.2735 20.546 30.276C18.7805 31.3964 17.3739 32.3568 16.4814 33.0068C11.8542 36.3826 5.36929 35.3689 1.99346 30.7416C-1.38237 26.1144 -0.368651 19.6295 4.25857 16.2537C4.88911 15.7929 19.8378 4.96698 35.3637 0.417372C39.6999 -0.853415 44.3611 0.82965 46.8833 4.57896L46.9221 4.64201C46.9415 4.67111 46.9609 4.69536 46.9754 4.72447C48.741 3.60404 50.1427 2.64367 51.04 1.99373C55.6672 -1.3821 62.1521 -0.368382 65.528 4.25884C68.9038 8.88605 67.8901 15.3709 63.2629 18.7468C62.6323 19.2076 47.6836 30.0335 32.1577 34.5831C31.1925 34.8644 30.2127 35.0002 29.2426 35.0002Z" fill="currentColor"/>
</g>
<g clip-path="url(#clip1_978_5985)">
<path d="M13.9091 17.2975H13.5647C13.188 17.2975 13 17.1047 13 16.719V16.4848C13 16.0992 13.188 15.9063 13.5647 15.9063H13.9091V15.5758C13.9091 15.0158 14.0145 14.5682 14.2259 14.2328C14.4373 13.8974 14.6894 13.6384 14.9835 13.4545C15.2775 13.2707 15.5737 13.1494 15.8719 13.0895C16.1701 13.0296 16.4112 13 16.595 13H16.8017C17.1784 13 17.3664 13.1949 17.3664 13.584V13.9456C17.3664 14.2975 17.1687 14.4876 16.7741 14.5158C16.6639 14.5248 16.5448 14.5406 16.416 14.5634C16.2872 14.5861 16.168 14.6364 16.0579 14.7135C15.9477 14.7906 15.8533 14.9022 15.7755 15.0475C15.6977 15.1928 15.6584 15.3933 15.6584 15.6474V15.9063H16.595C16.9718 15.9063 17.1598 16.0992 17.1598 16.4848V16.719C17.1598 17.1047 16.9718 17.2975 16.595 17.2975H15.6584V22.2562C15.6584 22.6419 15.4656 22.8347 15.0799 22.8347H14.4738C14.0971 22.8347 13.9091 22.6419 13.9091 22.2562V17.2975Z" fill="white"/>
<path d="M17.6282 19.3222C17.6282 18.7802 17.7156 18.2843 17.8899 17.8346C18.0641 17.3849 18.3079 16.9965 18.6199 16.6707C18.9319 16.3449 19.3086 16.0922 19.7494 15.9131C20.1902 15.7341 20.6723 15.6445 21.1957 15.6445C21.6915 15.6445 22.1344 15.7292 22.5249 15.8994C22.9154 16.0695 23.2411 16.3009 23.5028 16.5949C23.7645 16.889 23.9643 17.2423 24.102 17.6556C24.2397 18.0688 24.3086 18.5144 24.3086 18.9916C24.3086 19.148 24.2515 19.2857 24.1364 19.4049C24.0214 19.524 23.8768 19.5839 23.7026 19.5839H19.4188C19.4464 19.9056 19.5221 20.1852 19.6461 20.4241C19.77 20.6631 19.9264 20.8629 20.1144 21.0233C20.3024 21.1838 20.5187 21.3057 20.7618 21.3883C21.0049 21.471 21.2597 21.5123 21.5262 21.5123C21.8479 21.5123 22.1392 21.462 22.4009 21.3608C22.6626 21.2595 22.8761 21.159 23.0414 21.0578C23.2156 20.9751 23.3651 20.9476 23.4891 20.9751C23.613 21.0027 23.7211 21.0943 23.8127 21.2506L23.978 21.5261C24.1523 21.8567 24.0882 22.1135 23.7852 22.2974C23.5559 22.4441 23.2391 22.5984 22.8348 22.7589C22.4305 22.9193 21.9532 22.9999 21.4023 22.9999C20.8238 22.9999 20.3004 22.9014 19.832 22.7038C19.3637 22.5061 18.9663 22.2403 18.6406 21.9049C18.3148 21.5695 18.0641 21.1797 17.8899 20.7341C17.7156 20.2885 17.6282 19.8181 17.6282 19.3222ZM22.5731 18.5233C22.5545 18.0275 22.4147 17.6438 22.153 17.3732C21.8913 17.1025 21.5586 16.9668 21.1543 16.9668C20.7046 16.9668 20.33 17.1094 20.0318 17.3938C19.7335 17.6783 19.5428 18.055 19.4601 18.5233H22.5731Z" fill="white"/>
<path d="M25.0386 20.8925C25.0386 20.5529 25.1026 20.2568 25.2314 20.004C25.3602 19.7513 25.5344 19.5357 25.7548 19.3567C25.9752 19.1776 26.2252 19.033 26.5055 18.9228C26.7858 18.8126 27.0771 18.7251 27.3802 18.6611C27.6832 18.597 27.9862 18.5529 28.2893 18.5302C28.5923 18.5075 28.8767 18.4958 29.1433 18.4958H29.4325V18.3305C29.4325 17.8711 29.3037 17.5502 29.0468 17.3663C28.79 17.1824 28.4821 17.0908 28.124 17.0908C27.8299 17.0908 27.5544 17.1342 27.2975 17.2217C27.0406 17.3091 26.8292 17.3987 26.6639 17.4903C26.3058 17.6466 26.0489 17.5681 25.8926 17.2561L25.7548 16.9944C25.5806 16.6549 25.6536 16.3973 25.9752 16.223C26.2046 16.1039 26.5145 15.9772 26.905 15.8443C27.2955 15.7113 27.7521 15.6445 28.2755 15.6445C29.1935 15.6445 29.9077 15.8876 30.4174 16.3746C30.927 16.8615 31.1818 17.5502 31.1818 18.4407V22.2561C31.1818 22.6418 30.989 22.8346 30.6033 22.8346H30.135C29.7583 22.8346 29.5703 22.6418 29.5703 22.2561V21.9806C29.5703 21.8704 29.5751 21.7967 29.584 21.7602C29.584 21.7237 29.5888 21.6962 29.5978 21.6776H29.5703C29.4325 21.9255 29.2583 22.1459 29.0468 22.3387C28.863 22.504 28.6336 22.6556 28.3581 22.7933C28.0827 22.931 27.7521 22.9999 27.3664 22.9999C27.0448 22.9999 26.7445 22.9496 26.4642 22.8484C26.1839 22.7471 25.9387 22.6053 25.7273 22.4214C25.5158 22.2375 25.3485 22.0171 25.2245 21.7602C25.1006 21.5033 25.0386 21.2141 25.0386 20.8925ZM26.7741 20.741C26.7741 20.9799 26.8636 21.1934 27.0427 21.3814C27.2218 21.5695 27.4855 21.6638 27.8347 21.6638C28.0827 21.6638 28.3051 21.6087 28.5028 21.4985C28.7004 21.3883 28.8678 21.2437 29.0055 21.0646C29.1433 20.8856 29.2514 20.6859 29.3292 20.4655C29.407 20.2451 29.4463 20.0295 29.4463 19.8181V19.5564H29.157C28.9366 19.5564 28.6887 19.5702 28.4132 19.5977C28.1377 19.6252 27.8781 19.6803 27.635 19.763C27.3919 19.8456 27.1873 19.9648 27.022 20.1211C26.8568 20.2775 26.7741 20.4841 26.7741 20.741Z" fill="white"/>
<path d="M32.8071 16.3883C32.8071 16.0027 32.9951 15.8098 33.3719 15.8098H33.9091C34.2858 15.8098 34.4738 16.0027 34.4738 16.3883V16.8153C34.4738 16.8615 34.4717 16.9028 34.4669 16.9393C34.4621 16.9758 34.46 17.0082 34.46 17.0357C34.4511 17.0722 34.4462 17.1046 34.4462 17.1321H34.4738C34.5475 16.9854 34.6529 16.8243 34.7906 16.65C34.9283 16.4758 35.0984 16.3146 35.3002 16.1679C35.502 16.0213 35.741 15.8973 36.0165 15.796C36.292 15.6948 36.6088 15.6445 36.9669 15.6445C37.7472 15.6445 38.3512 15.856 38.7782 16.2781C39.2052 16.7003 39.4187 17.3801 39.4187 18.3167V22.2561C39.4187 22.6418 39.2259 22.8346 38.8402 22.8346H38.2479C37.8622 22.8346 37.6694 22.6418 37.6694 22.2561V18.6748C37.6694 18.243 37.5957 17.8966 37.449 17.6349C37.3023 17.3732 37.0082 17.2423 36.5675 17.2423C36.2555 17.2423 35.9752 17.3022 35.7272 17.4214C35.4793 17.5405 35.2679 17.7058 35.0936 17.9173C34.9194 18.1287 34.7837 18.3739 34.6873 18.6542C34.5909 18.9345 34.5427 19.2306 34.5427 19.5426V22.2561C34.5427 22.6418 34.3546 22.8346 33.9779 22.8346H33.3719C32.9951 22.8346 32.8071 22.6418 32.8071 22.2561V16.3883Z" fill="white"/>
<path d="M40.9614 16.3886C40.9614 16.0029 41.1543 15.8101 41.5399 15.8101H42.1322C42.5179 15.8101 42.7107 16.0029 42.7107 16.3886V19.9698C42.7107 20.4017 42.7844 20.7481 42.9311 21.0098C43.0778 21.2715 43.3671 21.4023 43.7989 21.4023C44.1109 21.4023 44.3912 21.3383 44.6391 21.2095C44.887 21.0807 45.0937 20.9065 45.2589 20.6861C45.4242 20.4657 45.5503 20.213 45.6377 19.9285C45.7252 19.6441 45.7686 19.3452 45.7686 19.0332V16.3886C45.7686 16.0029 45.9614 15.8101 46.3471 15.8101H46.9394C47.3251 15.8101 47.5179 16.0029 47.5179 16.3886V22.2563C47.5179 22.642 47.3251 22.8349 46.9394 22.8349H46.4022C46.0255 22.8349 45.8375 22.642 45.8375 22.2563V21.7192C45.8375 21.6826 45.8423 21.6503 45.8512 21.6227C45.8512 21.5862 45.8554 21.5539 45.865 21.5263H45.8375C45.7548 21.7102 45.6377 21.8893 45.4862 22.0635C45.3347 22.2377 45.1536 22.3941 44.9421 22.5318C44.7307 22.6696 44.4966 22.7818 44.2397 22.8693C43.9828 22.9568 43.7025 23.0001 43.3994 23.0001C42.6467 23.0001 42.0516 22.7935 41.6157 22.3803C41.1797 21.9671 40.9614 21.2832 40.9614 20.328V16.3886Z" fill="white"/>
<path d="M49.6254 17.2977H49.2535C48.8767 17.2977 48.6887 17.1049 48.6887 16.7192V16.485C48.6887 16.0994 48.8816 15.9065 49.2672 15.9065H49.6667V14.474C49.6667 14.0883 49.8595 13.8955 50.2452 13.8955H50.7962C51.1818 13.8955 51.3747 14.0883 51.3747 14.474V15.9065H52.394C52.7796 15.9065 52.9725 16.0994 52.9725 16.485V16.7192C52.9725 17.1049 52.7845 17.2977 52.4077 17.2977H51.3747V20.025C51.3747 20.2915 51.4112 20.505 51.4849 20.6655C51.5586 20.8259 51.6502 20.9547 51.7603 21.0512C51.8705 21.1476 51.9924 21.2164 52.1254 21.2578C52.2583 21.2991 52.385 21.3246 52.5041 21.3335C52.7156 21.3521 52.8643 21.4024 52.9518 21.485C53.0393 21.5677 53.0827 21.7054 53.0827 21.8983V22.3253C53.0827 22.5367 53.0227 22.6855 52.9036 22.7729C52.7845 22.8604 52.6054 22.9038 52.3664 22.9038C52.0544 22.9038 51.7349 22.8576 51.4091 22.766C51.0833 22.6744 50.7893 22.5271 50.5276 22.3253C50.2659 22.1235 50.0503 21.859 49.8802 21.5332C49.7101 21.2075 49.6254 20.8053 49.6254 20.328V17.2977Z" fill="white"/>
</g>
<defs>
<clipPath id="clip0_978_5985">
<rect width="67.5215" height="35" fill="white"/>
</clipPath>
<clipPath id="clip1_978_5985">
<rect width="40.0826" height="10" fill="white" transform="translate(13 13)"/>
</clipPath>
</defs>
</svg>
