<svg width="255" height="200" viewBox="0 0 255 200" fill="none" xmlns="http://www.w3.org/2000/svg">
<g clip-path="url(#clip0_383_4035)">
<rect width="255" height="200" rx="15" fill="#C5EF68"/>
<g clip-path="url(#clip1_383_4035)">
<path d="M72.3564 169.988C54.1471 161.497 32.5021 169.375 24.011 187.584C15.5199 205.793 23.398 227.438 41.6073 235.929L106.219 266.058C124.428 274.549 146.073 266.671 154.564 248.462C163.055 230.253 155.177 208.608 136.968 200.117L72.3564 169.988Z" fill="#FF7569"/>
<path d="M17 17.9028C-1.20924 9.41165 -22.8542 17.2898 -31.3453 35.499C-39.8364 53.7083 -31.9583 75.3533 -13.749 83.8444L50.8625 113.973C69.0718 122.464 90.7167 114.586 99.2078 96.377C107.699 78.1677 99.8208 56.5227 81.6116 48.0316L17 17.9028Z" fill="#FF7569"/>
<path d="M44.6781 93.9453C26.4689 85.4541 4.82391 93.3323 -3.66721 111.542C-12.1583 129.751 -4.28022 151.396 13.9291 159.887L78.5406 190.016C96.7499 198.507 118.395 190.629 126.886 172.419C135.377 154.21 127.499 132.565 109.29 124.074L44.6781 93.9453Z" fill="#FF7569"/>
</g>
</g>
<defs>
<clipPath id="clip0_383_4035">
<rect width="255" height="200" rx="15" fill="white"/>
</clipPath>
<clipPath id="clip1_383_4035">
<rect width="285.021" height="123.174" fill="white" transform="translate(52.483 296.96) rotate(-110)"/>
</clipPath>
</defs>
</svg>
