<svg width="255" height="200" viewBox="0 0 255 200" fill="none" xmlns="http://www.w3.org/2000/svg">
<g clip-path="url(#clip0_383_4051)">
<rect width="255" height="200" rx="15" fill="#FB4738"/>
<g clip-path="url(#clip1_383_4051)">
<path d="M72.6297 137.613C72.6163 160.464 91.1296 178.977 113.98 178.964C136.831 178.95 155.366 160.415 155.379 137.565L155.427 56.483C155.44 33.6323 136.927 15.1191 114.076 15.1325C91.2258 15.1459 72.6908 33.6809 72.6773 56.5316L72.6297 137.613Z" fill="#9BEA77"/>
<path d="M32.9148 96.2984C10.0641 96.3119 -8.47095 114.847 -8.48437 137.698C-8.49779 160.548 10.0155 179.062 32.8662 179.048L113.948 179C136.798 178.987 155.333 160.452 155.347 137.601C155.36 114.751 136.847 96.2374 113.996 96.2508L32.9148 96.2984Z" fill="#9BEA77"/>
<path d="M-8.74441 218.989C-8.75782 241.84 9.75544 260.353 32.6061 260.34C55.4568 260.326 73.9918 241.791 74.0053 218.941L74.0529 137.859C74.0663 115.008 55.553 96.4951 32.7023 96.5085C9.85164 96.5219 -8.68338 115.057 -8.69679 137.908L-8.74441 218.989Z" fill="#9BEA77"/>
<path d="M-48.4563 177.677C-71.307 177.691 -89.842 196.226 -89.8555 219.076C-89.8689 241.927 -71.3556 260.44 -48.5049 260.427L32.5767 260.379C55.4274 260.366 73.9624 241.831 73.9758 218.98C73.9892 196.13 55.476 177.616 32.6253 177.63L-48.4563 177.677Z" fill="#9BEA77"/>
</g>
</g>
<defs>
<clipPath id="clip0_383_4051">
<rect width="255" height="200" rx="15" fill="white"/>
</clipPath>
<clipPath id="clip1_383_4051">
<rect width="140" height="312.667" fill="white" transform="translate(-8.00513 318.084) rotate(-135)"/>
</clipPath>
</defs>
</svg>
