<svg width="9" height="12" viewBox="0 0 9 12" fill="none" xmlns="http://www.w3.org/2000/svg">
<path d="M7.79573 4.49267H7.48446V3.00293C7.48446 1.3471 6.14565 0 4.5 0C2.85435 0 1.51554 1.3471 1.51554 3.00293V4.49267H1.20427C0.539067 4.49267 0 5.03507 0 5.7044V10.7883C0 11.4576 0.539067 12 1.20427 12H7.79573C8.46093 12 9 11.4576 9 10.7883V5.7044C9 5.03507 8.46093 4.49267 7.79573 4.49267ZM2.40155 3.00293C2.40155 1.83859 3.34282 0.891496 4.5 0.891496C5.65718 0.891496 6.59844 1.83859 6.59844 3.00293V4.49267H2.40155V3.00293Z" fill="#7F7E84"/>
</svg>
