<svg width="348" height="842" viewBox="0 0 348 842" fill="none" xmlns="http://www.w3.org/2000/svg">
<g clip-path="url(#clip0_1768_5115)">
<path d="M266.234 659.032C266.234 585.514 206.642 525.915 133.131 525.915C59.6206 525.915 0.028384 585.514 0.0283872 659.032L0.0283986 919.853C0.0284018 993.372 59.6206 1052.97 133.131 1052.97C206.642 1052.97 266.234 993.372 266.234 919.853L266.234 659.032Z" fill="#0075FF"/>
<path d="M266.206 133.088C266.206 59.5695 206.614 -0.0290618 133.103 -0.0290586C59.5922 -0.0290553 -5.843e-05 59.5695 -5.52164e-05 133.088L-4.38156e-05 393.909C-4.0602e-05 467.428 59.5922 527.026 133.103 527.026C206.614 527.026 266.206 467.428 266.206 393.909L266.206 133.088Z" fill="#0075FF"/>
<path d="M390.092 526.628L390.092 675.216L261.391 600.908L132.69 526.628L261.391 452.319L390.092 378.01L390.092 526.628Z" fill="#0075FF"/>
</g>
<defs>
<clipPath id="clip0_1768_5115">
<rect width="1053" height="390.092" fill="white" transform="translate(0 1053) rotate(-90)"/>
</clipPath>
</defs>
</svg>
