<svg width="511" height="759" viewBox="0 0 511 759" fill="none" xmlns="http://www.w3.org/2000/svg">
<g clip-path="url(#clip0_1815_5842)">
<path d="M355.9 554.937C300.678 529.186 235.037 553.078 209.286 608.3C183.536 663.522 207.427 729.164 262.649 754.914L458.593 846.284C513.816 872.035 579.457 848.143 605.208 792.921C630.958 737.699 607.067 672.058 551.844 646.307L355.9 554.937Z" fill="#FF7569"/>
<path d="M188.024 93.7173C132.802 67.9668 67.1608 91.8583 41.4102 147.081C15.6596 202.303 39.5512 267.944 94.7734 293.695L290.717 385.065C345.94 410.816 411.581 386.924 437.332 331.702C463.082 276.479 439.191 210.838 383.968 185.087L188.024 93.7173Z" fill="#FF7569"/>
<path d="M271.962 324.327C216.74 298.576 151.098 322.468 125.348 377.69C99.5971 432.912 123.489 498.554 178.711 524.304L374.655 615.675C429.877 641.425 495.518 617.534 521.269 562.311C547.02 507.089 523.128 441.448 467.906 415.697L271.962 324.327Z" fill="#FF7569"/>
</g>
<defs>
<clipPath id="clip0_1815_5842">
<rect width="864.369" height="373.542" fill="white" transform="translate(295.632 940) rotate(-110)"/>
</clipPath>
</defs>
</svg>
