<svg width="527" height="677" viewBox="0 0 527 677" fill="none" xmlns="http://www.w3.org/2000/svg">
<g clip-path="url(#clip0_1815_5815)">
<path d="M431.042 679.82L657.97 680.684L545.268 483.649L432.539 286.587L318.341 482.786L204.115 678.957L431.042 679.82Z" fill="#FE8709"/>
<path d="M155.783 484.039C70.2496 483.714 1.17512 414.08 1.50087 328.508C1.82663 242.936 71.4292 173.83 156.963 174.156L708.964 176.257C794.497 176.583 863.572 246.216 863.246 331.788C862.92 417.36 793.317 486.466 707.784 486.141L155.783 484.039Z" fill="#FE8709"/>
<path d="M433.686 310.85C348.563 310.526 279.82 241.227 280.144 156.065C280.468 70.9038 349.737 2.12951 434.86 2.45356C519.982 2.7776 588.725 72.0773 588.401 157.239C588.077 242.4 518.808 311.175 433.686 310.85Z" fill="#FE8709"/>
</g>
<defs>
<clipPath id="clip0_1815_5815">
<rect width="861.751" height="677.377" fill="white" transform="matrix(-0.999993 -0.00380671 -0.00380671 0.999993 864.493 4.08899)"/>
</clipPath>
</defs>
</svg>
