<svg width="523" height="728" viewBox="0 0 523 728" fill="none" xmlns="http://www.w3.org/2000/svg">
<path d="M265.72 266.361C216.164 316.065 216.164 396.651 265.72 446.355C315.277 496.058 395.624 496.058 445.18 446.355L621.023 269.99C670.579 220.286 670.579 139.7 621.023 89.9966C571.466 40.2929 491.119 40.2929 441.563 89.9966L265.72 266.361Z" fill="#0FC45E"/>
<path d="M269.191 89.9971C219.635 40.2934 139.288 40.2934 89.731 89.9971C40.1745 139.701 40.1745 220.286 89.731 269.99L265.574 446.355C315.13 496.059 395.477 496.059 445.034 446.355C494.59 396.651 494.59 316.066 445.034 266.362L269.191 89.9971Z" fill="#0FC45E"/>
<path d="M265.719 554.991C216.163 604.695 216.163 685.28 265.719 734.984C315.276 784.688 395.623 784.688 445.179 734.984L621.022 558.619C670.578 508.915 670.578 428.33 621.022 378.626C571.465 328.922 491.118 328.922 441.562 378.626L265.719 554.991Z" fill="#0FC45E"/>
<path d="M269.19 378.646C219.634 328.942 139.287 328.942 89.73 378.646C40.1735 428.349 40.1735 508.935 89.73 558.639L265.572 735.003C315.129 784.707 395.476 784.707 445.033 735.003C494.589 685.3 494.589 604.714 445.033 555.01L269.19 378.646Z" fill="#0FC45E"/>
</svg>
