<svg width="515" height="675" viewBox="0 0 515 675" fill="none" xmlns="http://www.w3.org/2000/svg">
<path d="M242.229 358.291C242.268 425.123 188.122 479.269 121.29 479.23C54.4589 479.19 0.249437 424.981 0.210195 358.149L0.0709485 121.009C0.0317057 54.1778 54.1776 0.0319593 121.009 0.0712021C187.841 0.110445 242.05 54.32 242.089 121.152L242.229 358.291Z" fill="#9BEA77"/>
<path d="M358.383 237.458C425.214 237.497 479.424 291.707 479.463 358.538C479.502 425.37 425.357 479.516 358.525 479.476L121.385 479.337C54.5535 479.298 0.344036 425.088 0.304793 358.257C0.26555 291.425 54.4114 237.279 121.243 237.319L358.383 237.458Z" fill="#9BEA77"/>
<path d="M480.224 596.293C480.263 663.124 426.117 717.27 359.286 717.231C292.454 717.191 238.245 662.982 238.205 596.15L238.066 359.011C238.027 292.179 292.173 238.033 359.004 238.072C425.836 238.112 480.045 292.321 480.084 359.153L480.224 596.293Z" fill="#9BEA77"/>
<path d="M596.37 475.467C663.202 475.506 717.411 529.716 717.45 596.547C717.49 663.379 663.344 717.525 596.512 717.486L359.372 717.346C292.541 717.307 238.331 663.098 238.292 596.266C238.253 529.435 292.399 475.289 359.23 475.328L596.37 475.467Z" fill="#9BEA77"/>
</svg>
