<svg width="14" height="17" viewBox="0 0 14 17" fill="none" xmlns="http://www.w3.org/2000/svg">
<path d="M7.75908 16.0019C6.73634 16.0019 5.73327 15.8052 4.7892 15.4119C4.41551 15.2545 4.2385 14.8218 4.38601 14.4481C4.54335 14.0744 4.97605 13.8974 5.34974 14.0449C6.1168 14.3596 6.92319 14.517 7.74925 14.517C8.15245 14.517 8.4868 14.8513 8.4868 15.2545C8.4868 15.6577 8.15245 15.9921 7.74925 15.9921L7.75908 16.0019Z" fill="white"/>
<path d="M10.493 15.4513C10.2078 15.4513 9.93244 15.2841 9.81443 14.9989C9.65708 14.6252 9.8341 14.1925 10.2078 14.0352C10.9552 13.7205 11.6239 13.2681 12.2041 12.6879C12.4893 12.4027 12.9613 12.4027 13.2465 12.6879C13.5317 12.9731 13.5317 13.4451 13.2465 13.7303C12.5385 14.4384 11.7026 14.9989 10.7782 15.3923C10.6798 15.4316 10.5913 15.4513 10.493 15.4513Z" fill="white"/>
<path d="M13.9447 3.93554C13.9447 4.14205 13.8758 4.34857 13.7283 4.49608C13.5907 4.64359 13.4038 4.71243 13.2071 4.71243H13.158L9.91272 4.52558C9.50953 4.49608 9.20467 4.15189 9.22434 3.74869C9.24401 3.33566 9.60787 3.02097 10.0012 3.05047L11.3977 3.13898C10.3454 2.37192 9.07683 1.96873 7.75907 1.96873C4.29748 1.96873 1.47511 4.78127 1.47511 8.25269C1.47511 9.92447 2.13399 11.5078 3.31407 12.6878C3.6091 12.973 3.6091 13.4451 3.31407 13.7303C3.1764 13.8778 2.97972 13.9466 2.79287 13.9466C2.60602 13.9466 2.41918 13.8778 2.27167 13.7303C0.806392 12.265 0 10.3178 0 8.25269C0 3.97487 3.48125 0.49362 7.75907 0.49362C9.43085 0.49362 11.0338 1.02466 12.3516 2.00806L12.2729 0.778807C12.2532 0.375611 12.5679 0.0215853 12.9711 0.00191719C13.3645 -0.027585 13.7283 0.287105 13.748 0.690301L13.9447 3.93554Z" fill="white"/>
</svg>
