<svg width="12" height="15" viewBox="0 0 12 15" fill="none" xmlns="http://www.w3.org/2000/svg">
<g clip-path="url(#clip0_978_11565)">
<path d="M9.69901 4.0376H8.0199V5.5376H9.69901C10.1443 5.5376 10.5075 5.9026 10.5075 6.3501V12.6876C10.5075 13.1351 10.1443 13.5001 9.69901 13.5001H2.30099C1.85323 13.5001 1.49254 13.1351 1.49254 12.6876V6.3501C1.49254 5.9026 1.85323 5.5376 2.30099 5.5376H4.0398V4.0376H2.30099C1.03234 4.0376 0 5.0751 0 6.3501V12.6876C0 13.9626 1.03234 15.0001 2.30099 15.0001H9.69901C10.9677 15.0001 12 13.9626 12 12.6876V6.3501C12 5.0751 10.9677 4.0376 9.69901 4.0376Z" fill="#1D1D1F"/>
<path d="M8.80099 3.115C8.67661 3.2525 8.50497 3.325 8.33333 3.325C8.18656 3.325 8.0398 3.2725 7.92288 3.1675L6.62189 2.01V9.025C6.62189 9.37 6.34328 9.65 5.99999 9.65C5.65671 9.65 5.3781 9.37 5.3781 9.025V2.0125L4.0796 3.1675C3.82089 3.3975 3.42786 3.3725 3.20149 3.115C2.97263 2.855 2.99751 2.46 3.25373 2.2325L5.58457 0.16C5.70149 0.0525 5.85323 0 6.00497 0C6.03482 0 6.06218 0.0025 6.09203 0.0075C6.09701 0.0075 6.10447 0.0075 6.11193 0.01C6.14676 0.015 6.1791 0.025 6.21144 0.0375C6.23134 0.0425 6.25124 0.0525 6.27114 0.065C6.29353 0.075 6.31343 0.085 6.33333 0.0975C6.3383 0.1 6.34328 0.1025 6.34825 0.1075C6.36318 0.1175 6.3781 0.1275 6.39054 0.14C6.398 0.145 6.40547 0.15 6.41293 0.1575L8.74626 2.2325C9.00248 2.46 9.02736 2.855 8.80099 3.115Z" fill="#1D1D1F"/>
</g>
<defs>
<clipPath id="clip0_978_11565">
<rect width="12" height="15" fill="white"/>
</clipPath>
</defs>
</svg>
