<svg width="21" height="16" viewBox="0 0 21 16" fill="none" xmlns="http://www.w3.org/2000/svg">
<path d="M20.6053 12.8171C20.6445 12.9053 20.6641 13.0032 20.6641 13.1012C20.6641 13.1991 20.6445 13.297 20.6053 13.3852C20.5857 13.4243 20.5661 13.4733 20.5368 13.5125C20.5074 13.5614 20.4682 13.6104 20.4192 13.6496L17.9807 15.8237C17.8338 15.9412 17.6673 16 17.491 16C17.2853 16 17.0895 15.9217 16.9426 15.7552C16.6684 15.4516 16.6977 14.9913 17.0013 14.7171L17.9905 13.8357H17.5694C16.1591 13.8357 14.837 13.2872 13.8479 12.2981L10.332 8.78227L6.8162 12.2981C5.82707 13.2872 4.50496 13.8357 3.10451 13.8357H0.734505C0.332976 13.8357 0 13.5027 0 13.1012C0 12.6996 0.332976 12.3666 0.734505 12.3666H3.10451C4.11323 12.3666 5.06319 11.9749 5.7781 11.26L9.29393 7.74417L6.30695 4.74739C5.59203 4.03247 4.64207 3.64073 3.62356 3.64073H0.734505C0.332976 3.64073 0 3.31755 0 2.90623C0 2.4949 0.332976 2.17172 0.734505 2.17172H3.62356C5.03381 2.17172 6.35591 2.72015 7.34505 3.70929L10.332 6.70607L13.3288 3.70929C14.3179 2.72015 15.6401 2.17172 17.0405 2.17172H18.0003L17.0013 1.28052C16.6977 1.0161 16.6684 0.555812 16.9426 0.252217C17.207 -0.0611719 17.6771 -0.0807587 17.9807 0.183663L20.4192 2.3578C20.4682 2.39697 20.5074 2.44594 20.5368 2.4949C20.5661 2.53408 20.5857 2.58305 20.6053 2.62222C20.6445 2.71036 20.6641 2.80829 20.6641 2.90623C20.6641 3.00416 20.6445 3.1021 20.6053 3.19024C20.5857 3.2392 20.5661 3.27838 20.5368 3.31755C20.5074 3.36652 20.4682 3.41548 20.4192 3.45466L17.9807 5.62879C17.8338 5.74631 17.6673 5.81487 17.491 5.81487C17.2853 5.81487 17.0895 5.72673 16.9426 5.57003C16.6684 5.26644 16.6977 4.79635 17.0013 4.53193L18.0003 3.64073H17.0405C16.0318 3.64073 15.0818 4.03247 14.3669 4.74739L11.3701 7.74417L14.886 11.26C15.6009 11.9749 16.5508 12.3666 17.5694 12.3666H18.0003L17.0013 11.4755C16.6977 11.211 16.6684 10.7409 16.9426 10.4373C17.207 10.1338 17.6771 10.1142 17.9807 10.3786L20.4192 12.5527C20.4682 12.5919 20.5074 12.6409 20.5368 12.6898C20.5661 12.729 20.5857 12.7682 20.6053 12.8171Z" fill="white"/>
</svg>
