<svg width="16" height="16" viewBox="0 0 16 16" fill="none" xmlns="http://www.w3.org/2000/svg">
<g clip-path="url(#clip0_1316_4773)">
<path d="M14.7801 5.10986H2.08008C1.53008 5.10986 1.08008 4.65986 1.08008 4.10986C1.08008 3.55986 1.53008 3.10986 2.08008 3.10986H14.7901C15.3401 3.10986 15.7901 3.55986 15.7901 4.10986C15.7901 4.65986 15.3401 5.10986 14.7901 5.10986H14.7801Z" fill="#7F7E83"/>
<path d="M14.12 3.29004L13.98 3.44004L14.71 4.11004L13.98 4.78004L14.12 4.93004L15 4.11004L14.12 3.29004Z" fill="#7F7E83"/>
<path d="M3.78012 8.22009C3.50012 8.22009 3.23012 8.11009 3.03012 7.89009L0.250117 4.78009C-0.0898828 4.40009 -0.0898828 3.83009 0.250117 3.45009L3.03012 0.340088C3.40012 -0.0699121 4.03012 -0.109912 4.44012 0.260088C4.85012 0.630088 4.89012 1.26009 4.52012 1.67009L2.34012 4.12009L4.52012 6.57009C4.89012 6.98009 4.85012 7.61009 4.44012 7.98009C4.25012 8.15009 4.01012 8.23009 3.77012 8.23009L3.78012 8.22009Z" fill="#7F7E83"/>
<path d="M13.92 12.8901H1.21997C0.669971 12.8901 0.219971 12.4401 0.219971 11.8901C0.219971 11.3401 0.669971 10.8901 1.21997 10.8901H13.93C14.48 10.8901 14.93 11.3401 14.93 11.8901C14.93 12.4401 14.48 12.8901 13.93 12.8901H13.92Z" fill="#7F7E83"/>
<path d="M1.88 12.7103L2.02 12.5603L1.29 11.8903L2.02 11.2203L1.88 11.0703L1 11.8903L1.88 12.7103Z" fill="#7F7E83"/>
<path d="M12.22 16.0001C11.98 16.0001 11.75 15.9201 11.55 15.7501C11.14 15.3801 11.1 14.7501 11.47 14.3401L13.65 11.8901L11.47 9.44011C11.1 9.03011 11.14 8.40011 11.55 8.03011C11.96 7.66011 12.59 7.70011 12.96 8.11011L15.73 11.2201C16.07 11.6001 16.07 12.1701 15.73 12.5501L12.96 15.6601C12.76 15.8801 12.49 15.9901 12.21 15.9901L12.22 16.0001Z" fill="#7F7E83"/>
</g>
<defs>
<clipPath id="clip0_1316_4773">
<rect width="16" height="16" fill="white"/>
</clipPath>
</defs>
</svg>
