<svg width="24" height="25" viewBox="0 0 24 25" fill="none" xmlns="http://www.w3.org/2000/svg">
<path fill-rule="evenodd" clip-rule="evenodd" d="M1.25 4.5C1.25 2.98122 2.48122 1.75 4 1.75H20C21.5188 1.75 22.75 2.98122 22.75 4.5V20.5C22.75 22.0188 21.5188 23.25 20 23.25H4C2.48122 23.25 1.25 22.0188 1.25 20.5V4.5ZM2.75 10.0556V12.8611H6.80409C7.4702 12.8611 8.11367 13.1029 8.61497 13.5415L11.1769 15.7832C11.6482 16.1956 12.3518 16.1956 12.8231 15.7832L15.385 13.5415C15.8863 13.1029 16.5298 12.8611 17.1959 12.8611H21.25V10.0556C21.25 9.3652 20.6904 8.80556 20 8.80556H4C3.30964 8.80556 2.75 9.3652 2.75 10.0556Z" fill="currentColor"/>
</svg>
