<svg width="24" height="25" viewBox="0 0 24 25" fill="none" xmlns="http://www.w3.org/2000/svg">
<g clip-path="url(#clip0_3070_672)">
<path fill-rule="evenodd" clip-rule="evenodd" d="M13.7998 22.75L23.1371 13.3307C24.1998 12.2588 24.1998 10.5306 23.1371 9.45866L15.1533 1.40479C14.0774 0.3195 12.3231 0.319497 11.2472 1.40479L0.86339 11.8797C-0.199254 12.9517 -0.199256 14.6798 0.863389 15.7518L7.80071 22.75H1.20025C0.786037 22.75 0.45025 23.0857 0.45025 23.5C0.45025 23.9142 0.786037 24.25 1.20025 24.25H22.8003C23.2145 24.25 23.5503 23.9142 23.5503 23.5C23.5503 23.0857 23.2145 22.75 22.8003 22.75H13.7998ZM10.7106 9.11086C11.2963 9.69665 11.2963 10.6464 10.7106 11.2322C10.1248 11.818 9.17503 11.818 8.58924 11.2322C8.00346 10.6464 8.00346 9.69665 8.58924 9.11086C9.17503 8.52508 10.1248 8.52508 10.7106 9.11086ZM8.76602 17.0658C8.47313 16.7729 8.47313 16.298 8.76602 16.0052L15.4835 9.28764C15.7764 8.99475 16.2513 8.99475 16.5442 9.28764C16.8371 9.58053 16.8371 10.0554 16.5442 10.3483L9.82668 17.0658C9.53379 17.3587 9.05891 17.3587 8.76602 17.0658ZM11.948 17.7729C11.6551 18.0658 11.6551 18.5407 11.948 18.8336C12.2409 19.1265 12.7158 19.1265 13.0087 18.8336L18.312 13.5303C18.6049 13.2374 18.6049 12.7625 18.312 12.4696C18.0191 12.1767 17.5442 12.1767 17.2513 12.4696L11.948 17.7729Z" fill="currentColor"/>
</g>
<defs>
<clipPath id="clip0_3070_672">
<rect width="24" height="24" fill="white" transform="translate(0 0.5)"/>
</clipPath>
</defs>
</svg>
