<svg width="12" height="12" viewBox="0 0 12 12" fill="none" xmlns="http://www.w3.org/2000/svg">
<g clip-path="url(#clip0_978_11712)">
<path d="M12 9.07623C12 9.07623 12 9.15499 12 9.18452C12 9.22389 11.9796 9.25343 11.9694 9.2928C11.9694 9.31249 11.9491 9.34202 11.9389 9.36171C11.9389 9.3814 11.9287 9.39124 11.9185 9.40109C11.8981 9.43062 11.8777 9.46015 11.8573 9.47984L9.73665 11.7834C9.6143 11.9212 9.44098 11.9901 9.25746 11.9901C9.10453 11.9901 8.9618 11.9409 8.83945 11.8326C8.57437 11.6062 8.55398 11.2223 8.78847 10.9663L9.97114 9.67672H6.39255C6.03571 9.67672 5.76044 9.40109 5.76044 9.06639C5.76044 8.73169 6.04591 8.45605 6.39255 8.45605H9.97114L8.79867 7.17631C8.56418 6.92037 8.58457 6.53645 8.84965 6.31003C9.11473 6.08361 9.51235 6.1033 9.74684 6.35925L11.8573 8.66278C11.8573 8.66278 11.8879 8.712 11.9083 8.73169C11.9185 8.75138 11.9389 8.78091 11.9491 8.8006C11.9592 8.82028 11.9694 8.84982 11.9796 8.86951C11.9898 8.89904 12 8.92857 12 8.94826C12 8.94826 12 8.9581 12 8.96795C12 9.00732 12 9.03686 12 9.06639V9.07623Z" fill="black"/>
<path d="M11.9286 9.36188C11.9286 9.36188 11.949 9.31266 11.9592 9.29297C11.9592 9.30281 11.9592 9.31266 11.949 9.33235C11.949 9.34219 11.9388 9.35203 11.9286 9.36188Z" fill="black"/>
<path d="M3.82328 9.68649C4.17239 9.68649 4.45539 9.41324 4.45539 9.07616C4.45539 8.73908 4.17239 8.46582 3.82328 8.46582C3.47417 8.46582 3.19116 8.73908 3.19116 9.07616C3.19116 9.41324 3.47417 9.68649 3.82328 9.68649Z" fill="black"/>
<path d="M1.27445 9.68649C1.62356 9.68649 1.90657 9.41324 1.90657 9.07616C1.90657 8.73908 1.62356 8.46582 1.27445 8.46582C0.925342 8.46582 0.642334 8.73908 0.642334 9.07616C0.642334 9.41324 0.925342 9.68649 1.27445 9.68649Z" fill="black"/>
<path d="M0.0713577 2.63826C0.0713577 2.63826 0.0509669 2.68748 0.0407715 2.70717C0.0407715 2.69733 0.0509669 2.68748 0.0611623 2.66779C0.0611623 2.65795 0.0713577 2.64811 0.0815531 2.62842L0.0713577 2.63826Z" fill="black"/>
<path d="M6.26999 2.92389C6.26999 3.26843 5.98452 3.53422 5.63788 3.53422H2.05929L3.23176 4.81396C3.46625 5.06991 3.44586 5.45383 3.18078 5.68025C3.05844 5.77869 2.90551 5.83775 2.75258 5.83775C2.57925 5.83775 2.39574 5.76884 2.27339 5.63103L0.162941 3.33734C0.162941 3.33734 0.122159 3.29797 0.111964 3.26843C0.101768 3.24874 0.0813776 3.21921 0.0711822 3.19952C0.0609868 3.17984 0.0507914 3.1503 0.040596 3.13062C0.0304006 3.10108 0.0202052 3.08139 0.0100098 3.05186C0.0100098 3.05186 0.0100098 3.04202 0.0100098 3.03217C0.0100098 3.00264 0.0100098 2.96326 0.0100098 2.93373C0.0100098 2.93373 0.0100098 2.85498 0.0100098 2.82545C0.0100098 2.78607 0.0304006 2.75654 0.040596 2.71716C0.040596 2.69747 0.0609868 2.66794 0.0711822 2.64825C0.0711822 2.63841 0.0813777 2.61872 0.0915731 2.60888C0.101768 2.57934 0.132355 2.55966 0.152746 2.53012L2.27339 0.206907C2.50789 -0.0490405 2.90551 -0.0687287 3.17059 0.157686C3.43567 0.384101 3.45606 0.768023 3.22156 1.02397L2.0389 2.31355H5.61749C5.97433 2.31355 6.2496 2.58919 6.2496 2.92389H6.26999Z" fill="black"/>
<path d="M8.18692 3.53415C8.53603 3.53415 8.81904 3.26089 8.81904 2.92381C8.81904 2.58673 8.53603 2.31348 8.18692 2.31348C7.83782 2.31348 7.55481 2.58673 7.55481 2.92381C7.55481 3.26089 7.83782 3.53415 8.18692 3.53415Z" fill="black"/>
<path d="M10.7358 3.53415C11.0849 3.53415 11.3679 3.26089 11.3679 2.92381C11.3679 2.58673 11.0849 2.31348 10.7358 2.31348C10.3866 2.31348 10.1036 2.58673 10.1036 2.92381C10.1036 3.26089 10.3866 3.53415 10.7358 3.53415Z" fill="black"/>
</g>
<defs>
<clipPath id="clip0_978_11712">
<rect width="12" height="12" fill="white"/>
</clipPath>
</defs>
</svg>
